<svg xmlns="http://www.w3.org/2000/svg" viewBox="0 0 49.63 33.01"><defs><style>.cls-1{fill:#1f1f2c;}</style></defs><title>Asset 1</title><g id="Layer_2" data-name="Layer 2"><g id="Layer_2-2" data-name="Layer 2"><path class="cls-1" d="M0,32.61V2.91a.39.39,0,0,1,.59-.35c4.88,2.88,19.91,12,23.5,14.21a1.48,1.48,0,0,0,1.55,0C29.23,14.59,44.22,5.47,49,2.65a.39.39,0,0,1,.59.35V32.61a.4.4,0,0,1-.4.4H.4A.4.4,0,0,1,0,32.61Z"/><path class="cls-1" d="M49.25.75c-8.58,5.16-16,9.69-23.62,14.1a1.67,1.67,0,0,1-1.51,0C16.53,10.44,9.07,5.91.49.75A.4.4,0,0,1,.68,0H49.06A.4.4,0,0,1,49.25.75Z"/></g></g></svg>