<svg xmlns="http://www.w3.org/2000/svg" viewBox="0 0 80 80"><defs><style>.cls-1{fill:#0caaa2;}.cls-2{fill:#fff;}</style></defs><title>My-Logos</title><g id="Layer_6" data-name="Layer 6"><rect class="cls-1" width="80" height="80"/><path class="cls-2" d="M68.68,44.08C68.36,37.2,60.3,32.75,54.52,31a41.32,41.32,0,0,0-17.68-1.06,1,1,0,0,1-1.15-.84c-.84-5.26-2.59-10.4-7-13.79-4.65-3.58-11.36-3.74-15.33,1-4.28,5.08-1.25,11.21,3.53,14.57,2.84,2,6.12,3.26,8.63,5.74a18.43,18.43,0,0,1,4.79,8.21,18.23,18.23,0,0,1-6.49,18.9c-2.23,1.8.94,4.92,3.14,3.14A22.56,22.56,0,0,0,26.4,31.5c-3.07-2.32-7.34-3.57-9.65-6.79-2.1-2.92-.61-6.3,2.7-7.43s6.84,1.15,8.77,3.77c2.43,3.3,3.08,7.59,3.47,11.56a2.27,2.27,0,0,0,2.81,2.14,41.55,41.55,0,0,1,15.9-.26c4.7,1,10.49,3.22,13.09,7.55,1.41,2.35.55,4.83-1.79,6.16-2.51,1.43-5.7,1-8.37.33a23.37,23.37,0,0,1-13-8.9c-1.66-2.3-5.52-.08-3.84,2.24a27.94,27.94,0,0,0,17,11.25c3.57.71,7.54.75,10.73-1.24A9,9,0,0,0,68.68,44.08Z"/></g></svg>