<svg id="Layer_1" data-name="Layer 1" xmlns="http://www.w3.org/2000/svg" viewBox="0 0 447.34 447.32"><title>linkedin</title><path d="M223.52,0H413.43c14.5,0,26.52,7.67,31.43,20.43,1.39,3.61,1.67,7.64,2.43,11.48a9,9,0,0,1,0,1.72q0,190,0,380c0,8.38-2.07,16-7.57,22.51-6.16,7.26-14.23,10.59-23.6,11.1-.93.05-1.86,0-2.8,0H34.18C14.87,447.31,0,432.45,0,413.15q0-189.8,0-379.6C0,22.34,3.77,12.91,13,6.11A31.28,31.28,0,0,1,31.89,0Q70-.05,108,0Zm155,378.46c0-.72,0-1.22,0-1.71,0-41.15.07-82.3-.07-123.45,0-14.44-1.52-28.76-6-42.61-6-18.75-17.4-32.7-36.19-39.9-9.27-3.55-18.94-5-28.78-5.55-11.07-.63-21.9.55-32.28,4.66-12.45,4.92-23,12.35-29.79,24.16-1.22,2.11-2.51,2.3-4.68,1.8V172.12H172.13v206.3H240.9v-2.66c0-32,0-63.95,0-95.92,0-6.58.28-13.19.86-19.75a61,61,0,0,1,6.73-24c8.71-16.09,30.19-21,44.8-10.29,6.14,4.52,9.64,10.87,12,17.92,3.54,10.53,4.31,21.45,4.32,32.45q0,49.9,0,99.79v2.55ZM68.92,172.09V378.39h68.59V172.09Zm75.62-68.89c0-22.37-18.9-41.29-41.23-41.29-22.52,0-41.42,18.85-41.42,41.32s19,41.35,41.44,41.32C125.62,144.51,144.55,125.52,144.54,103.19Z" transform="translate(0 0)"/></svg>