<svg id="Layer_1" data-name="Layer 1" xmlns="http://www.w3.org/2000/svg" viewBox="0 0 170.31 37.18"><defs><style>.cls-1{fill:#0caaa2;}</style></defs><title>logo1-teal</title><path class="cls-1" d="M13.31,17.81h0a7.58,7.58,0,0,0-5.54-2.29,7.82,7.82,0,0,0-3.92,1.08,7.71,7.71,0,0,0-1,.69V7.81a.63.63,0,0,0-.63-.63H.63A.63.63,0,0,0,0,7.81v22.3a.63.63,0,0,0,.63.63H2.19a.63.63,0,0,0,.63-.63v-.86A7.94,7.94,0,0,0,3.92,30a7.72,7.72,0,0,0,3.85,1.06,7.58,7.58,0,0,0,5.54-2.29,7.72,7.72,0,0,0,0-11Zm-2,1.93a5,5,0,0,1,0,7.12,4.67,4.67,0,0,1-3.49,1.49,4.8,4.8,0,0,1-3.54-1.5,4.79,4.79,0,0,1-1.5-3.53,4.88,4.88,0,0,1,1.5-3.57A4.75,4.75,0,0,1,7.8,18.24,4.68,4.68,0,0,1,11.29,19.74Z"/><path class="cls-1" d="M26.55,16.64a5.25,5.25,0,0,0-3.17-1.11,5.77,5.77,0,0,0-2.93.76l-.19.11v-.56H18.07a.63.63,0,0,0-.63.63V30.11a.63.63,0,0,0,.63.63h1.56a.63.63,0,0,0,.63-.63v-9a2.72,2.72,0,0,1,.89-2,2.79,2.79,0,0,1,2-.88,3,3,0,0,1,2.13,1l.54.54a.63.63,0,0,0,1.08-.45v-2.4Z"/><path class="cls-1" d="M38.16,27.72a5.1,5.1,0,0,1-2.63.67,4.19,4.19,0,0,1-2.13-.67l8.48-8.37a.63.63,0,0,0,0-.88l-.2-.22a7.6,7.6,0,0,0-5.82-2.68,7.76,7.76,0,0,0-5.67,2.28,7.42,7.42,0,0,0-2.3,5.43,7.59,7.59,0,0,0,2.31,5.48,7.45,7.45,0,0,0,5.46,2.35h.26a7.42,7.42,0,0,0,5.67-2.56l.25-.27V25.38A.63.63,0,0,0,40.69,25l-.58.86A5.92,5.92,0,0,1,38.16,27.72Zm-6.74-1.94a5,5,0,0,1-.69-2.6,4.67,4.67,0,0,1,1.5-3.42,4.65,4.65,0,0,1,3.4-1.5,5,5,0,0,1,2.63.72Z"/><path class="cls-1" d="M55.43,17.49a6.43,6.43,0,0,0-4.75-2,6.54,6.54,0,0,0-4.08,1.23v-.28a.63.63,0,0,0-.63-.63H44.41a.63.63,0,0,0-.63.63V30.11a.63.63,0,0,0,.63.63H46a.63.63,0,0,0,.63-.63V22.23a3.73,3.73,0,0,1,1.23-2.78,3.94,3.94,0,0,1,2.85-1.2,3.57,3.57,0,0,1,2.7,1.18,3.92,3.92,0,0,1,1.14,2.81v7.89a.63.63,0,0,0,.63.63h1.56a.63.63,0,0,0,.63-.63V22.23A6.54,6.54,0,0,0,55.43,17.49Z"/><path class="cls-1" d="M72.59,7.18a.63.63,0,0,0-.63.63V17.3a7.72,7.72,0,0,0-1-.7A7.82,7.82,0,0,0,67,15.53a7.81,7.81,0,0,0-7.83,7.77A7.81,7.81,0,0,0,67,31.07,7.72,7.72,0,0,0,70.87,30,7.88,7.88,0,0,0,72,29.26v.86a.63.63,0,0,0,.63.63h1.56a.63.63,0,0,0,.63-.63V7.81a.63.63,0,0,0-.63-.63ZM63.48,26.87a5,5,0,0,1,0-7.12A4.67,4.67,0,0,1,67,18.24a4.75,4.75,0,0,1,3.53,1.52A4.88,4.88,0,0,1,72,23.33a5.12,5.12,0,0,1-5,5A4.67,4.67,0,0,1,63.48,26.87Z"/><path class="cls-1" d="M90,15.85a.63.63,0,0,0-.63.63v.79a7.41,7.41,0,0,0-.93-.63,7.92,7.92,0,0,0-4-1.11,7.59,7.59,0,0,0-5.52,2.28,7.68,7.68,0,0,0,0,11,7.59,7.59,0,0,0,5.52,2.28A7.69,7.69,0,0,0,88.4,30a7.42,7.42,0,0,0,1-.7v.83a.63.63,0,0,0,.63.63h1.56a.63.63,0,0,0,.63-.63V16.48a.63.63,0,0,0-.63-.63Zm-.58,7.46A4.88,4.88,0,0,1,88,26.87a4.66,4.66,0,0,1-3.49,1.49,5.12,5.12,0,0,1-5-5A4.88,4.88,0,0,1,81,19.76a4.75,4.75,0,0,1,3.53-1.52A4.68,4.68,0,0,1,88,19.74,4.9,4.9,0,0,1,89.45,23.31Z"/><path class="cls-1" d="M112.54,17.49a6.48,6.48,0,0,0-4.76-2,7.24,7.24,0,0,0-3.16.65.63.63,0,0,1-.89-.58V7.84a.63.63,0,0,0-.63-.63h-1.56a.63.63,0,0,0-.63.63V30.11a.63.63,0,0,0,.63.63h1.56a.63.63,0,0,0,.63-.63V22.23a3.75,3.75,0,0,1,1.22-2.79,3.89,3.89,0,0,1,2.83-1.2,3.63,3.63,0,0,1,2.73,1.17,3.87,3.87,0,0,1,1.15,2.82v7.89a.63.63,0,0,0,.63.63h1.56a.63.63,0,0,0,.63-.63V22.23A6.51,6.51,0,0,0,112.54,17.49Z"/><path class="cls-1" d="M127.84,15.85a.63.63,0,0,0-.63.63v7.89A3.73,3.73,0,0,1,126,27.15a3.94,3.94,0,0,1-2.85,1.2,3.57,3.57,0,0,1-2.71-1.18,3.91,3.91,0,0,1-1.14-2.81V16.48a.63.63,0,0,0-.63-.63H117.1a.63.63,0,0,0-.63.63v7.89a6.54,6.54,0,0,0,1.92,4.74,6.43,6.43,0,0,0,4.75,2,6.54,6.54,0,0,0,4.08-1.23v.28a.63.63,0,0,0,.63.63h1.56a.63.63,0,0,0,.63-.63V16.48a.63.63,0,0,0-.63-.63Z"/><path class="cls-1" d="M170,21.83c-.21-4.54-5.53-7.48-9.35-8.65a27.27,27.27,0,0,0-11.67-.7.67.67,0,0,1-.76-.56c-.55-3.47-1.71-6.86-4.62-9.1-3.07-2.36-7.5-2.47-10.12.65-2.82,3.35-.82,7.39,2.33,9.61,1.88,1.32,4,2.15,5.69,3.79a12.16,12.16,0,0,1,3.16,5.41,12,12,0,0,1-4.28,12.47c-1.47,1.18.62,3.25,2.07,2.07a14.89,14.89,0,0,0-.37-23.3c-2-1.53-4.84-2.36-6.37-4.48-1.39-1.93-.4-4.16,1.78-4.9s4.51.76,5.79,2.49c1.6,2.17,2,5,2.29,7.63a1.5,1.5,0,0,0,1.86,1.41,27.42,27.42,0,0,1,10.49-.17c3.1.63,6.92,2.13,8.64,5a2.81,2.81,0,0,1-1.18,4.07c-1.66.94-3.76.67-5.52.22a15.42,15.42,0,0,1-8.57-5.87c-1.1-1.52-3.64-.05-2.53,1.48A18.43,18.43,0,0,0,160,27.8,9.76,9.76,0,0,0,167,27,5.94,5.94,0,0,0,170,21.83Z"/></svg>