<svg id="Layer_1" data-name="Layer 1" xmlns="http://www.w3.org/2000/svg" viewBox="0 0 613.35 421.15"><defs><style>.cls-1{font-size:14px;font-family:SourceSansPro-Regular, Source Sans Pro;}.cls-2{letter-spacing:-0.01em;}.cls-3{letter-spacing:-0.01em;}.cls-4{letter-spacing:0em;}.cls-5{letter-spacing:-0.02em;}.cls-6{letter-spacing:-0.01em;}.cls-7{letter-spacing:0em;}.cls-8{letter-spacing:0em;}.cls-9{letter-spacing:-0.02em;}.cls-10{letter-spacing:-0.01em;}.cls-11{letter-spacing:-0.03em;}.cls-12{letter-spacing:-0.02em;}.cls-13{letter-spacing:-0.02em;}.cls-14{letter-spacing:-0.05em;}.cls-15{fill:none;stroke:#e5e5e5;stroke-miterlimit:10;}.cls-16{fill:#0caaa2;}</style></defs><title>competitive analysis</title><g id="brands"><path d="M472,180.59a3.57,3.57,0,0,1,2.65-1.09l.06,1a2.5,2.5,0,0,0-2,.79c-1.3,1.33-1.12,3.18.51,4.78s3.46,1.86,4.83.46a2.56,2.56,0,0,0,.78-1.57l-1.71-1.68-1.36,1.39-.69-.68,2.11-2.15,2.76,2.71a4.13,4.13,0,0,1-1.24,2.79c-1.69,1.72-4.15,1.71-6.29-.38S470.3,182.35,472,180.59Z" transform="translate(-204.5 -127.35)"/><path d="M478.93,176.95c1.17-1.19,3.14-1.34,4.77.26a3.18,3.18,0,1,1-4.41,4.5C477.65,180.11,477.76,178.14,478.93,176.95Zm4.42,4.33c.82-.84.62-2.14-.49-3.22s-2.43-1.28-3.25-.44-.61,2.15.51,3.24S482.54,182.11,483.35,181.28Z" transform="translate(-204.5 -127.35)"/><path d="M484.24,171.53c1.17-1.19,3.14-1.34,4.77.26a3.17,3.17,0,1,1-4.41,4.5C483,174.69,483.08,172.72,484.24,171.53Zm4.42,4.33c.82-.84.62-2.14-.49-3.22s-2.43-1.28-3.25-.44-.61,2.15.51,3.24S487.85,176.7,488.66,175.87Z" transform="translate(-204.5 -127.35)"/><path d="M492.84,172.38l0,0a1.26,1.26,0,0,1-1.21-.34,1.59,1.59,0,0,1-.38-1.41l0,0a2.4,2.4,0,0,1-1.86-4.18,2.74,2.74,0,0,1,.8-.57l1.66-1.69.63.62-1,1a2,2,0,0,1,1.39.58,2.34,2.34,0,0,1-.06,3.44,2.37,2.37,0,0,1-.89.56,1,1,0,0,0,.28.88c.31.3.73.32,1.38-.34l.92-.94c1.11-1.13,2-1.36,2.83-.56s.75,2.6-.73,4.11c-1.17,1.19-2.44,1.55-3.28.73A2,2,0,0,1,492.84,172.38ZM492,167a1.45,1.45,0,1,0-2,2.06,1.45,1.45,0,1,0,2-2.06Zm4,5.74c.91-.93,1-2,.52-2.51s-.94-.24-1.56.39l-.82.84a3.32,3.32,0,0,1-.7.55,1.44,1.44,0,0,0,.33,1.3C494.37,173.85,495.22,173.65,496.08,172.77Z" transform="translate(-204.5 -127.35)"/><path d="M490.5,160.87l.8-.82,6.2,6.08c.26.25.47.24.59.12a1,1,0,0,0,.16-.2l.73.5a1.57,1.57,0,0,1-.38.55c-.61.62-1.24.49-2-.21Z" transform="translate(-204.5 -127.35)"/><path d="M496.93,158.6c1.22-1.24,2.79-1.07,4.18.3a4.11,4.11,0,0,1,.42.47l-3.22,3.28a2.27,2.27,0,0,0,3.3.06,3.08,3.08,0,0,0,.81-1.58l.82.24a4.05,4.05,0,0,1-1.07,2.09,3.6,3.6,0,0,1-5.25-4.85Zm3.39.93c-1-1-2-1.07-2.72-.31a2.12,2.12,0,0,0,.17,2.91Z" transform="translate(-204.5 -127.35)"/><path d="M500.45,151.84l3.72-3.79.7.69-2.89,3,2.22,2.18,2.45-2.5.7.69-2.45,2.5,2.94,2.88-.82.84Z" transform="translate(-204.5 -127.35)"/><path d="M504.64,146.45l.8-.82,6.2,6.08c.26.25.47.24.59.12a1,1,0,0,0,.16-.2l.73.5a1.56,1.56,0,0,1-.38.55c-.61.62-1.24.49-2-.21Z" transform="translate(-204.5 -127.35)"/><path d="M507.72,144.77a.8.8,0,1,1,1.09-.05A.74.74,0,0,1,507.72,144.77Zm1.68,1.35.8-.82,4.86,4.77-.8.82Z" transform="translate(-204.5 -127.35)"/><path d="M516.83,147.92l0,0a1.26,1.26,0,0,1-1.21-.34,1.59,1.59,0,0,1-.38-1.41l0,0a2.4,2.4,0,0,1-1.86-4.18,2.75,2.75,0,0,1,.8-.57l1.66-1.69.63.62-1,1a2,2,0,0,1,1.39.58,2.33,2.33,0,0,1-.06,3.44,2.37,2.37,0,0,1-.89.56,1,1,0,0,0,.28.88c.31.3.73.32,1.38-.34l.92-.94c1.11-1.13,2-1.36,2.83-.56s.75,2.6-.73,4.11c-1.17,1.19-2.44,1.55-3.28.73A2,2,0,0,1,516.83,147.92Zm-.79-5.35a1.45,1.45,0,1,0-2,2.06,1.45,1.45,0,1,0,2-2.06Zm4,5.74c.91-.93,1-2,.52-2.51s-.94-.24-1.56.39l-.82.84a3.34,3.34,0,0,1-.7.55,1.44,1.44,0,0,0,.33,1.3C518.35,149.39,519.2,149.19,520.06,148.31Z" transform="translate(-204.5 -127.35)"/><path d="M514.49,136.41l.8-.82,1.94,1.9,1,1a3.25,3.25,0,0,1,.79-2.4c1-1,2.11-.83,3.35.38l3.08,3-.8.82-3-2.91c-.91-.89-1.58-1-2.2-.36a2.6,2.6,0,0,0-.55,2.07l3.52,3.45-.8.82Z" transform="translate(-204.5 -127.35)"/><path d="M522.89,133.7l-.71.72-.62-.61.7-.81L521,131.57l.68-.69,1.36,1.33,1.29-1.31.67.66-1.29,1.31,2.7,2.65c.6.59,1.13.73,1.68.17a2.49,2.49,0,0,0,.41-.68l.78.45a4.18,4.18,0,0,1-.7,1.08c-1,1-2,.74-3-.2Z" transform="translate(-204.5 -127.35)"/><path d="M529,133.63a3.06,3.06,0,0,0,2-.86c.63-.64.6-1.29.18-1.71s-1.29-.13-2,.21c-.93.44-2,.88-2.82.08s-.77-2,.26-3a3.4,3.4,0,0,1,2-1l.14.9a2.52,2.52,0,0,0-1.52.69c-.6.61-.54,1.21-.17,1.58s1.15.09,1.9-.26c.95-.45,2-.94,2.92,0s.83,2.05-.3,3.2a4.1,4.1,0,0,1-2.45,1.15Z" transform="translate(-204.5 -127.35)"/><path d="M519,182.83l-2.34,2.39,1.38,2.59-.83.85L512.87,180l.92-.94,8.74,4.21-.86.88Zm-.88-.45-1.3-.67c-1-.49-1.88-1-2.85-1.52l0,0c.55,1,1.07,1.87,1.57,2.82l.69,1.3Z" transform="translate(-204.5 -127.35)"/><path d="M516.79,176.35a.8.8,0,0,1,1.12-1.14.8.8,0,0,1-1.12,1.14Zm1.68,1.35.8-.82,4.86,4.77-.8.82Z" transform="translate(-204.5 -127.35)"/><path d="M520.88,175.24l.67-.68.95.79,0,0a2.33,2.33,0,0,1,.35-2.36,1.7,1.7,0,0,1,.61-.42l.56.87a1.9,1.9,0,0,0-.54.39,2.05,2.05,0,0,0-.09,2.33l3.12,3.06-.8.82Z" transform="translate(-204.5 -127.35)"/><path d="M522,169.55l.8-.82,1.94,1.9.86.88a3.36,3.36,0,0,1,.81-2.19c1.24-1.26,2.86-1,4.36.49,1.66,1.63,1.66,3.57.57,4.68a3.08,3.08,0,0,1-2,.8l0,0,.41.54-.65.66Zm8.52,4.41c.78-.8.63-2.11-.57-3.28s-2.14-1.4-3-.48a2.81,2.81,0,0,0-.62,1.95l2.55,2.5A2.66,2.66,0,0,0,530.54,174Z" transform="translate(-204.5 -127.35)"/><path d="M529.72,166.22l.67-.68.77.62,0,0a3.2,3.2,0,0,1,.78-2.43c1-1,2.11-.83,3.35.38l3.08,3-.8.82-3-2.91c-.91-.89-1.57-1-2.2-.36a2.61,2.61,0,0,0-.55,2.07l3.52,3.45-.8.82Z" transform="translate(-204.5 -127.35)"/><path d="M532.83,158.54l.8-.82,1.94,1.9.86.88a3.36,3.36,0,0,1,.81-2.19c1.23-1.26,2.86-1,4.36.49,1.66,1.63,1.66,3.57.57,4.68a3.08,3.08,0,0,1-2,.8l0,0,.41.54-.65.66Zm8.52,4.41c.79-.8.63-2.11-.57-3.28s-2.14-1.4-3-.48a2.81,2.81,0,0,0-.62,1.95l2.55,2.5A2.66,2.66,0,0,0,541.35,163Z" transform="translate(-204.5 -127.35)"/><path d="M550.55,181.36l.82-.84,3.29,3.23,0,0-.61-6,.93-.95.48,4.51,6.38,1.61-.91.93-5.33-1.38.23,2.42,2.08,2-.82.84Z" transform="translate(-204.5 -127.35)"/><path d="M562.3,176.33c-.62-.61-1.43-1-2.2-.2a3.66,3.66,0,0,0-.9,2l-.89-.23a5,5,0,0,1,1.24-2.53c1.17-1.19,2.45-.92,3.66.27l3,2.92-.67.68-.65-.5,0,0A3.69,3.69,0,0,1,564,181a1.86,1.86,0,0,1-2.78.08C560.13,180.07,560.5,178.63,562.3,176.33Zm1.24,3.82a2.79,2.79,0,0,0,.65-2l-1.35-1.32c-1.4,1.83-1.54,2.77-.92,3.38A1,1,0,0,0,563.54,180.15Z" transform="translate(-204.5 -127.35)"/><path d="M569.15,178.33a1.75,1.75,0,0,0,0-2.12l-.25-.46-6.78-2.83.83-.85,3.66,1.65,1.83.87,0,0c-.3-.57-.67-1.2-1-1.75l-1.84-3.51.78-.8,3.47,7c.63,1.28.87,2.5-.1,3.48a2.24,2.24,0,0,1-.66.47l-.49-.8A2,2,0,0,0,569.15,178.33Z" transform="translate(-204.5 -127.35)"/><path d="M571.7,166.75c-.62-.61-1.43-1-2.2-.2a3.67,3.67,0,0,0-.9,2l-.89-.23a5.05,5.05,0,0,1,1.24-2.53c1.17-1.19,2.45-.92,3.66.27l3,2.92-.67.68-.65-.5,0,0a3.7,3.7,0,0,1-.88,2.3,1.86,1.86,0,0,1-2.78.08C569.53,170.48,569.9,169,571.7,166.75Zm1.24,3.82a2.79,2.79,0,0,0,.65-2l-1.35-1.32c-1.4,1.83-1.54,2.77-.92,3.38A1,1,0,0,0,572.94,170.57Z" transform="translate(-204.5 -127.35)"/><path d="M570,160.42l.79-.81,4.82,4.73,0,0-.53-4.58.89-.91.35,3.54,4.72,1-.88.9-3.73-.88.17,2,1.28,1.26-.79.81Z" transform="translate(-204.5 -127.35)"/><path d="M588.55,182.36l3.71-3.78.7.69-2.88,2.94,2.06,2,2.43-2.48.71.7-2.43,2.48,2.38,2.33,3-3,.71.7-3.8,3.88Z" transform="translate(-204.5 -127.35)"/><path d="M598.53,180.22l-3.76-.81.87-.89,1.71.4c.41.1.84.22,1.28.31l0,0c-.13-.4-.27-.83-.38-1.23l-.49-1.64.84-.86,1,3.83,4,.82-.87.89-1.83-.4c-.46-.11-.93-.23-1.39-.32l0,0c.11.45.25.89.39,1.34l.48,1.77-.84.86Z" transform="translate(-204.5 -127.35)"/><path d="M605.76,178.75l1.64,1.61-.8.82-6.91-6.78.67-.68.63.48,0,0a3.52,3.52,0,0,1,.84-2.22c1.23-1.25,2.85-1,4.36.51s1.65,3.56.56,4.67a3.16,3.16,0,0,1-1.88.8Zm.19-2.15c.78-.8.63-2.11-.57-3.28s-2.14-1.4-3-.48a2.87,2.87,0,0,0-.62,1.95l2.55,2.5A2.69,2.69,0,0,0,605.95,176.59Z" transform="translate(-204.5 -127.35)"/><path d="M606.79,166.91c1.22-1.24,2.79-1.07,4.18.3a4,4,0,0,1,.42.47L608.18,171a2.27,2.27,0,0,0,3.3.06,3.07,3.07,0,0,0,.81-1.58l.83.24a4.05,4.05,0,0,1-1.07,2.09,3.6,3.6,0,0,1-5.25-4.85Zm3.39.93c-1-1-2-1.07-2.72-.31a2.12,2.12,0,0,0,.17,2.91Z" transform="translate(-204.5 -127.35)"/><path d="M611.59,162a2.81,2.81,0,0,1,1.89-.81l-.87-.77-1.87-1.83.81-.83,7.12,7-.67.68-.64-.49,0,0a3.08,3.08,0,0,1-.75,2.15c-1.2,1.22-2.89,1.11-4.51-.48S610.5,163.13,611.59,162Zm4.49,4.25a2.3,2.3,0,0,0,.55-1.9l-2.54-2.49a2.37,2.37,0,0,0-1.67.68c-.76.78-.62,2.14.49,3.23S615.25,167.11,616.08,166.26Z" transform="translate(-204.5 -127.35)"/><path d="M613.75,157a.8.8,0,0,1,1.12-1.14.8.8,0,0,1-1.12,1.14Zm1.68,1.35.8-.82,4.86,4.77-.8.82Z" transform="translate(-204.5 -127.35)"/><path d="M622.32,154.88c-.62-.61-1.43-1-2.2-.2a3.66,3.66,0,0,0-.9,2l-.89-.23a5.05,5.05,0,0,1,1.24-2.53c1.17-1.19,2.45-.92,3.66.27l3,2.92-.67.68-.65-.5,0,0a3.7,3.7,0,0,1-.88,2.3,1.86,1.86,0,0,1-2.78.08C620.14,158.62,620.52,157.18,622.32,154.88Zm1.24,3.82a2.79,2.79,0,0,0,.65-2l-1.35-1.32c-1.4,1.83-1.54,2.77-.92,3.38A1,1,0,0,0,623.55,158.7Z" transform="translate(-204.5 -127.35)"/><path d="M631.71,187.36a3.57,3.57,0,0,0,2.59-1c.84-.86.91-1.79.27-2.42s-1.35-.38-2.24,0l-1.33.54a2.46,2.46,0,0,1-2.7-4.1,3.75,3.75,0,0,1,2.7-1.14l.11,1A3,3,0,0,0,629,181c-.73.74-.84,1.59-.25,2.17s1.44.27,2.16,0l1.32-.55a2.56,2.56,0,0,1,3.07.37c1,1,1,2.69-.33,4.07a4.43,4.43,0,0,1-3.22,1.34Z" transform="translate(-204.5 -127.35)"/><path d="M631.12,176.57l.79-.81,4.82,4.73,0,0-.53-4.58.89-.91.35,3.54,4.72,1-.88.9-3.73-.88.17,2,1.28,1.26-.79.81Z" transform="translate(-204.5 -127.35)"/><path d="M644.54,179.95a1.75,1.75,0,0,0,0-2.12l-.25-.46-6.78-2.83.83-.85,3.66,1.65,1.83.87,0,0c-.3-.57-.67-1.2-1-1.75l-1.84-3.51.78-.8,3.47,7c.63,1.28.87,2.5-.1,3.48a2.26,2.26,0,0,1-.66.47l-.49-.8A2,2,0,0,0,644.54,179.95Z" transform="translate(-204.5 -127.35)"/><path d="M646.44,173a3.06,3.06,0,0,0,2-.86c.63-.64.6-1.29.18-1.71s-1.29-.13-2,.21c-.93.44-2,.88-2.82.08s-.77-2,.26-3a3.4,3.4,0,0,1,2-1l.14.9a2.53,2.53,0,0,0-1.52.69c-.6.61-.54,1.21-.17,1.58s1.15.09,1.9-.26c.95-.45,2-.94,2.92,0s.83,2.05-.29,3.2a4.1,4.1,0,0,1-2.45,1.15Z" transform="translate(-204.5 -127.35)"/><path d="M648.74,162.88a2.8,2.8,0,0,1,2-.85l.13.93a2.06,2.06,0,0,0-1.39.56c-.86.88-.73,2.27.39,3.36s2.46,1.21,3.33.32a2.43,2.43,0,0,0,.63-1.62l.9.16a3.37,3.37,0,0,1-.92,2.2c-1.26,1.29-3.17,1.37-4.78-.21A3.3,3.3,0,0,1,648.74,162.88Z" transform="translate(-204.5 -127.35)"/><path d="M655.77,159.52c-.62-.61-1.43-1-2.2-.2a3.67,3.67,0,0,0-.9,2l-.89-.23a5.06,5.06,0,0,1,1.24-2.53c1.17-1.19,2.45-.92,3.66.27l3,2.92-.67.68-.65-.5,0,0a3.7,3.7,0,0,1-.88,2.3,1.86,1.86,0,0,1-2.78.08C653.59,163.25,654,161.82,655.77,159.52Zm1.24,3.82a2.79,2.79,0,0,0,.65-2L656.31,160c-1.4,1.83-1.54,2.77-.92,3.38A1,1,0,0,0,657,163.34Z" transform="translate(-204.5 -127.35)"/><path d="M656.31,155.41l.67-.68.77.62,0,0a3.21,3.21,0,0,1,.78-2.43c1-1,2.11-.83,3.35.38l3.08,3-.8.82-3-2.91c-.91-.89-1.57-1-2.2-.36a2.61,2.61,0,0,0-.55,2.07l3.52,3.45-.8.82Z" transform="translate(-204.5 -127.35)"/><path d="M661.67,149.94l.67-.68.77.62,0,0a3.2,3.2,0,0,1,.78-2.43c1-1,2.11-.83,3.35.38l3.08,3-.8.82-3-2.91c-.91-.89-1.58-1-2.2-.36a2.61,2.61,0,0,0-.55,2.07l3.52,3.45-.8.82Z" transform="translate(-204.5 -127.35)"/><path d="M668.7,142.53c1.22-1.24,2.79-1.07,4.18.3a4,4,0,0,1,.42.47l-3.22,3.28a2.27,2.27,0,0,0,3.3.06,3.08,3.08,0,0,0,.81-1.58l.83.24a4.06,4.06,0,0,1-1.07,2.09,3.6,3.6,0,0,1-5.25-4.85Zm3.39.93c-1-1-2-1.07-2.72-.31a2.12,2.12,0,0,0,.17,2.91Z" transform="translate(-204.5 -127.35)"/><path d="M671.9,139.51l.67-.68.95.79,0,0a2.33,2.33,0,0,1,.35-2.36,1.7,1.7,0,0,1,.61-.42l.56.87a1.91,1.91,0,0,0-.54.39c-.4.41-.58,1.19-.09,2.33l3.12,3.06-.8.82Z" transform="translate(-204.5 -127.35)"/><path d="M666.59,182.67l-2,2-.7-.69,4.72-4.81.7.69-2,2,5.86,5.75-.81.83Z" transform="translate(-204.5 -127.35)"/><path d="M671,180.23l.67-.68.95.79,0,0a2.33,2.33,0,0,1,.35-2.36,1.69,1.69,0,0,1,.61-.42l.56.87a1.9,1.9,0,0,0-.54.39c-.4.41-.58,1.19-.09,2.33l3.12,3.06-.8.82Z" transform="translate(-204.5 -127.35)"/><path d="M678.58,176c-.62-.61-1.43-1-2.2-.2a3.66,3.66,0,0,0-.9,2l-.89-.23a5.06,5.06,0,0,1,1.24-2.53c1.17-1.19,2.45-.92,3.66.27l3,2.92-.67.68-.65-.5,0,0a3.7,3.7,0,0,1-.88,2.3,1.86,1.86,0,0,1-2.78.08C676.41,179.74,676.78,178.3,678.58,176Zm1.24,3.82a2.79,2.79,0,0,0,.65-2l-1.35-1.32c-1.4,1.83-1.54,2.77-.92,3.38A1,1,0,0,0,679.82,179.82Z" transform="translate(-204.5 -127.35)"/><path d="M678.44,172.59l.83-.85,3.66,1.79c.62.33,1.26.65,1.87,1l0,0c-.32-.59-.66-1.23-1-1.84L682,169l.79-.81,3.17,6.49-.94,1Z" transform="translate(-204.5 -127.35)"/><path d="M685.33,165.32c1.22-1.24,2.79-1.07,4.18.3a4,4,0,0,1,.42.47l-3.22,3.28a2.27,2.27,0,0,0,3.3.06,3.07,3.07,0,0,0,.81-1.58l.83.24a4.06,4.06,0,0,1-1.07,2.09,3.6,3.6,0,0,1-5.25-4.85Zm3.39.93c-1-1-2-1.07-2.72-.31a2.12,2.12,0,0,0,.17,2.91Z" transform="translate(-204.5 -127.35)"/><path d="M689.08,158.55a1.9,1.9,0,0,0-.66.43c-.45.46-.35,1,.27,1.6l.77.76,1-1,.67.66-1,1,4.19,4.11-.8.82-4.19-4.11-.65.66-.62-.61.6-.71-.77-.76c-1-1-1.17-2-.22-3a3.09,3.09,0,0,1,1-.65Z" transform="translate(-204.5 -127.35)"/><path d="M697.7,165.49a1.75,1.75,0,0,0,0-2.12l-.25-.46-6.78-2.83.83-.85,3.66,1.65,1.83.87,0,0c-.3-.57-.67-1.2-1-1.75l-1.84-3.51.78-.8,3.47,7c.63,1.28.87,2.5-.09,3.48a2.27,2.27,0,0,1-.66.47l-.49-.8A2,2,0,0,0,697.7,165.49Z" transform="translate(-204.5 -127.35)"/><path d="M705.59,182.67l-2,2-.7-.69,4.72-4.81.7.69-2,2,5.86,5.75-.81.83Z" transform="translate(-204.5 -127.35)"/><path d="M710,180.23l.67-.68.95.79,0,0a2.33,2.33,0,0,1,.35-2.36,1.69,1.69,0,0,1,.61-.42l.56.87a1.9,1.9,0,0,0-.54.39c-.4.41-.58,1.19-.09,2.33l3.12,3.06-.8.82Z" transform="translate(-204.5 -127.35)"/><path d="M711.67,175.41a.8.8,0,0,1,1.12-1.14.8.8,0,0,1-1.12,1.14Zm1.68,1.35.8-.82L719,180.7l-.8.82Z" transform="translate(-204.5 -127.35)"/><path d="M721.84,178.65l1.64,1.61-.8.82-6.91-6.78.67-.68.63.48,0,0a3.52,3.52,0,0,1,.84-2.22c1.23-1.25,2.85-1,4.36.51s1.65,3.56.56,4.67a3.15,3.15,0,0,1-1.88.8Zm.19-2.15c.78-.8.63-2.11-.57-3.28s-2.14-1.4-3-.48a2.87,2.87,0,0,0-.62,1.95l2.55,2.5A2.69,2.69,0,0,0,722,176.5Z" transform="translate(-204.5 -127.35)"/><path d="M727.06,168.51l-2.34,2.39,1.38,2.59-.83.85-4.38-8.65.92-.94,8.74,4.21-.86.88Zm-.88-.45-1.3-.67c-1-.49-1.88-1-2.85-1.52l0,0c.55,1,1.07,1.87,1.57,2.82l.69,1.3Z" transform="translate(-204.5 -127.35)"/><path d="M728.08,161.5a2.81,2.81,0,0,1,1.89-.81l-.87-.77-1.87-1.83.81-.83,7.12,7-.67.68-.64-.49,0,0a3.07,3.07,0,0,1-.75,2.15c-1.2,1.22-2.89,1.11-4.51-.48S727,162.61,728.08,161.5Zm4.49,4.25a2.3,2.3,0,0,0,.54-1.9l-2.54-2.49a2.37,2.37,0,0,0-1.67.68c-.77.78-.62,2.14.49,3.22S731.74,166.59,732.57,165.74Z" transform="translate(-204.5 -127.35)"/><path d="M731.23,158.53l.83-.85,3.66,1.79c.62.33,1.26.65,1.87,1l0,0c-.32-.59-.65-1.23-1-1.84l-1.86-3.63.79-.81,3.17,6.49-.94,1Z" transform="translate(-204.5 -127.35)"/><path d="M734.82,151.81a.8.8,0,0,1,1.12-1.14.8.8,0,0,1-1.12,1.14Zm1.68,1.35.8-.82,4.86,4.77-.8.82Z" transform="translate(-204.5 -127.35)"/><path d="M742.54,154.52a3.06,3.06,0,0,0,2-.86c.63-.64.6-1.29.18-1.71s-1.29-.13-2,.21c-.93.44-2,.88-2.82.08s-.77-2,.26-3a3.4,3.4,0,0,1,2-1l.14.9a2.53,2.53,0,0,0-1.52.69c-.6.61-.54,1.21-.17,1.58s1.15.09,1.9-.26c.95-.45,2-.94,2.92,0s.83,2.05-.3,3.2a4.1,4.1,0,0,1-2.45,1.15Z" transform="translate(-204.5 -127.35)"/><path d="M744.75,144.5c1.17-1.19,3.14-1.34,4.77.26a3.18,3.18,0,1,1-4.41,4.5C743.47,147.67,743.58,145.69,744.75,144.5Zm4.42,4.33c.82-.84.62-2.14-.49-3.22s-2.43-1.28-3.25-.44-.61,2.15.51,3.24S748.35,149.67,749.17,148.84Z" transform="translate(-204.5 -127.35)"/><path d="M748.33,141.09l.67-.68.95.79,0,0a2.33,2.33,0,0,1,.35-2.36,1.71,1.71,0,0,1,.61-.42l.56.87a1.91,1.91,0,0,0-.54.39,2.05,2.05,0,0,0-.09,2.33L754,145l-.8.82Z" transform="translate(-204.5 -127.35)"/><path d="M744.48,181.5l4-4.12,1.24,1.22-2.59,2.64,1.51,1.48,2.21-2.25,1.24,1.22-2.21,2.25,2.53,2.48L751,187.9Z" transform="translate(-204.5 -127.35)"/><path d="M749,175.91l1.44-1.47,5.53,5.42c.31.3.55.26.67.14a.86.86,0,0,0,.16-.2l1.27.89a2.7,2.7,0,0,1-.61.86c-1,1-2,.7-3-.28Z" transform="translate(-204.5 -127.35)"/><path d="M760,180.25a1.18,1.18,0,0,0,.2-1.51l-.19-.33-6.7-2.83,1.45-1.48,2.83,1.38c.59.3,1.18.64,1.79,1l0,0c-.36-.57-.72-1.14-1.08-1.72L756.83,172l1.38-1.41,3.32,6.63c.79,1.7.91,2.85-.24,4a3.15,3.15,0,0,1-.79.6l-.87-1.36A2.22,2.22,0,0,0,760,180.25Z" transform="translate(-204.5 -127.35)"/><path d="M759.81,168.35l-1.76,1.8-1.24-1.22,5-5.06,1.24,1.22-1.75,1.79,5.28,5.18-1.44,1.47Z" transform="translate(-204.5 -127.35)"/><path d="M767.91,164.27a1,1,0,0,0-1.49.07,3.72,3.72,0,0,0-.84,1.76l-1.48-.43a5.73,5.73,0,0,1,1.43-2.76c1.25-1.27,2.65-1.26,4.17.23l2.84,2.79-1.18,1.2-.62-.39,0,0a3.05,3.05,0,0,1-.79,2.07,2,2,0,0,1-2.94,0C765.95,167.81,766.19,166.42,767.91,164.27Zm1.37,2.95a1.55,1.55,0,0,0,.38-1.23l-.87-.85c-.89,1.19-.92,1.82-.54,2.19S768.94,167.57,769.28,167.22Z" transform="translate(-204.5 -127.35)"/><path d="M766.77,157.79l1.44-1.47,1.72,1.69.72.79a2.83,2.83,0,0,1,.73-1.85c1.18-1.2,2.9-1,4.42.51,1.71,1.68,1.69,3.66.64,4.73a2.52,2.52,0,0,1-1.9.66l0,0,.4.63-1.13,1.15Zm8.15,3.56c.5-.51.46-1.35-.56-2.35s-1.6-1-2.18-.45a1.59,1.59,0,0,0-.38,1.29l2,2A1.6,1.6,0,0,0,774.92,161.35Z" transform="translate(-204.5 -127.35)"/><path d="M778.07,157.31a3,3,0,0,0,1.77-.77c.43-.44.46-.79.2-1s-1,0-1.67.34a2.36,2.36,0,0,1-2.75-.12c-.92-.9-.81-2.27.31-3.42a4,4,0,0,1,2.35-1.13l.23,1.52a2.56,2.56,0,0,0-1.45.64c-.37.38-.41.7-.16.94s.89,0,1.58-.35c.85-.4,1.89-.77,2.8.12s.9,2.28-.4,3.61a4.49,4.49,0,0,1-2.55,1.22Z" transform="translate(-204.5 -127.35)"/></g><g id="features"><text class="cls-1" transform="translate(107.82 135.18)">Flight S<tspan class="cls-2" x="43.5" y="0">e</tspan><tspan x="50.25" y="0">a</tspan><tspan class="cls-3" x="57.41" y="0">r</tspan><tspan class="cls-4" x="62.13" y="0">ch Engine</tspan></text><text class="cls-1" transform="translate(105.47 97.18)">Mobile App <tspan class="cls-2" x="68.15" y="0">A</tspan><tspan class="cls-5" x="75.49" y="0">v</tspan><tspan x="81.74" y="0">ailable</tspan></text><text class="cls-1" transform="translate(109.33 174.42)">Ho<tspan class="cls-6" x="16.65" y="0">t</tspan><tspan x="21.24" y="0">el S</tspan><tspan class="cls-2" x="41.99" y="0">e</tspan><tspan class="cls-7" x="48.73" y="0">a</tspan><tspan class="cls-6" x="55.9" y="0">r</tspan><tspan x="60.62" y="0">ch Engine</tspan></text><text class="cls-1" transform="translate(149.73 213.65)">Sa<tspan class="cls-8" x="14.57" y="0">v</tspan><tspan x="21.06" y="0">e Options</tspan></text><text class="cls-1" transform="translate(161.19 251.61)">Pri<tspan class="cls-9" x="16.3" y="0">c</tspan><tspan x="22.39" y="0">e Alerts</tspan></text><text class="cls-1" transform="translate(145.65 290.93)">Fl<tspan class="cls-10" x="10.42" y="0">e</tspan><tspan x="17.26" y="0">xible Da</tspan><tspan class="cls-6" x="63.8" y="0">t</tspan><tspan x="68.39" y="0">es</tspan></text><text class="cls-1" transform="translate(35.5 330.07)">Sha<tspan class="cls-6" x="22.19" y="0">r</tspan><tspan x="26.91" y="0">e on </tspan><tspan class="cls-11" x="54.75" y="0">F</tspan><tspan x="61.12" y="0">a</tspan><tspan class="cls-12" x="68.29" y="0">c</tspan><tspan x="74.38" y="0">ebook or Messen</tspan><tspan class="cls-2" x="172.69" y="0">g</tspan><tspan x="179.55" y="0">er</tspan></text><text class="cls-1" transform="translate(10.27 368.22)">O<tspan class="cls-3" x="9.23" y="0">r</tspan><tspan class="cls-13" x="13.94" y="0">g</tspan><tspan x="20.78" y="0">ani</tspan><tspan class="cls-6" x="39.05" y="0">z</tspan><tspan x="44.86" y="0">e Flights/Ho</tspan><tspan class="cls-3" x="115.3" y="0">t</tspan><tspan x="119.89" y="0">els </tspan><tspan class="cls-8" x="139.1" y="0">b</tspan><tspan x="146.82" y="0">y </tspan><tspan class="cls-14" x="156.18" y="0">T</tspan><tspan class="cls-7" x="162.97" y="0">rip Name</tspan></text><text class="cls-1" transform="translate(102.05 407.22)">In-app Con<tspan class="cls-8" x="64.33" y="0">v</tspan><tspan x="70.81" y="0">e</tspan><tspan class="cls-3" x="77.75" y="0">r</tspan><tspan class="cls-4" x="82.47" y="0">sations</tspan></text></g><g id="grid"><rect class="cls-15" x="236.85" y="110.35" width="38.78" height="38.8"/><rect class="cls-15" x="275.63" y="110.35" width="38.78" height="38.8"/><rect class="cls-15" x="314.41" y="110.35" width="38.78" height="38.8"/><rect class="cls-15" x="353.19" y="110.35" width="38.78" height="38.8"/><rect class="cls-15" x="391.97" y="110.35" width="38.78" height="38.8"/><rect class="cls-15" x="430.75" y="110.35" width="38.78" height="38.8"/><rect class="cls-15" x="236.85" y="149.15" width="38.78" height="38.8"/><rect class="cls-15" x="275.63" y="149.15" width="38.78" height="38.8"/><rect class="cls-15" x="314.41" y="149.15" width="38.78" height="38.8"/><rect class="cls-15" x="353.19" y="149.15" width="38.78" height="38.8"/><rect class="cls-15" x="391.97" y="149.15" width="38.78" height="38.8"/><rect class="cls-15" x="430.75" y="149.15" width="38.78" height="38.8"/><rect class="cls-15" x="0.5" y="149.22" width="236.34" height="38.68"/><rect class="cls-15" x="236.85" y="187.95" width="38.78" height="38.8"/><rect class="cls-15" x="275.63" y="187.95" width="38.78" height="38.8"/><rect class="cls-15" x="314.41" y="187.95" width="38.78" height="38.8"/><rect class="cls-15" x="353.19" y="187.95" width="38.78" height="38.8"/><rect class="cls-15" x="391.97" y="187.95" width="38.78" height="38.8"/><rect class="cls-15" x="430.75" y="187.95" width="38.78" height="38.8"/><rect class="cls-15" x="0.5" y="188.07" width="236.34" height="38.68"/><rect class="cls-15" x="236.85" y="226.75" width="38.78" height="38.8"/><rect class="cls-15" x="275.63" y="226.75" width="38.78" height="38.8"/><rect class="cls-15" x="314.41" y="226.75" width="38.78" height="38.8"/><rect class="cls-15" x="353.19" y="226.75" width="38.78" height="38.8"/><rect class="cls-15" x="391.97" y="226.75" width="38.78" height="38.8"/><rect class="cls-15" x="430.75" y="226.75" width="38.78" height="38.8"/><rect class="cls-15" x="0.5" y="226.75" width="236.34" height="38.68"/><rect class="cls-15" x="236.85" y="265.55" width="38.78" height="38.8"/><rect class="cls-15" x="275.63" y="265.55" width="38.78" height="38.8"/><rect class="cls-15" x="314.41" y="265.55" width="38.78" height="38.8"/><rect class="cls-15" x="353.19" y="265.55" width="38.78" height="38.8"/><rect class="cls-15" x="391.97" y="265.55" width="38.78" height="38.8"/><rect class="cls-15" x="430.75" y="265.55" width="38.78" height="38.8"/><rect class="cls-15" x="0.5" y="265.67" width="236.34" height="38.68"/><rect class="cls-15" x="236.85" y="304.35" width="38.78" height="38.8"/><rect class="cls-15" x="275.63" y="304.35" width="38.78" height="38.8"/><rect class="cls-15" x="314.41" y="304.35" width="38.78" height="38.8"/><rect class="cls-15" x="353.19" y="304.35" width="38.78" height="38.8"/><rect class="cls-15" x="391.97" y="304.35" width="38.78" height="38.8"/><rect class="cls-15" x="430.75" y="304.35" width="38.78" height="38.8"/><rect class="cls-15" x="0.5" y="304.47" width="236.34" height="38.68"/><rect class="cls-15" x="236.85" y="343.15" width="38.78" height="38.8"/><rect class="cls-15" x="275.63" y="343.15" width="38.78" height="38.8"/><rect class="cls-15" x="314.41" y="343.15" width="38.78" height="38.8"/><rect class="cls-15" x="353.19" y="343.15" width="38.78" height="38.8"/><rect class="cls-15" x="391.97" y="343.15" width="38.78" height="38.8"/><rect class="cls-15" x="430.75" y="343.15" width="38.78" height="38.8"/><rect class="cls-15" x="0.5" y="343.27" width="236.34" height="38.68"/><rect class="cls-15" x="236.85" y="71.65" width="38.78" height="38.8"/><rect class="cls-15" x="275.63" y="71.65" width="38.78" height="38.8"/><rect class="cls-15" x="314.41" y="71.65" width="38.78" height="38.8"/><rect class="cls-15" x="353.19" y="71.65" width="38.78" height="38.8"/><rect class="cls-15" x="391.97" y="71.65" width="38.78" height="38.8"/><rect class="cls-15" x="430.75" y="71.65" width="38.78" height="38.8"/><rect class="cls-15" x="0.5" y="71.65" width="236.34" height="38.68"/><rect class="cls-15" x="469.5" y="110.35" width="38.78" height="38.8"/><rect class="cls-15" x="508.28" y="110.35" width="38.78" height="38.8"/><rect class="cls-15" x="469.5" y="149.15" width="38.78" height="38.8"/><rect class="cls-15" x="508.28" y="149.15" width="38.78" height="38.8"/><rect class="cls-15" x="469.5" y="187.95" width="38.78" height="38.8"/><rect class="cls-15" x="508.28" y="187.95" width="38.78" height="38.8"/><rect class="cls-15" x="469.5" y="226.75" width="38.78" height="38.8"/><rect class="cls-15" x="508.28" y="226.75" width="38.78" height="38.8"/><rect class="cls-15" x="469.5" y="265.55" width="38.78" height="38.8"/><rect class="cls-15" x="508.28" y="265.55" width="38.78" height="38.8"/><rect class="cls-15" x="469.5" y="304.35" width="38.78" height="38.8"/><rect class="cls-15" x="508.28" y="304.35" width="38.78" height="38.8"/><rect class="cls-15" x="469.5" y="343.15" width="38.78" height="38.8"/><rect class="cls-15" x="508.28" y="343.15" width="38.78" height="38.8"/><rect class="cls-15" x="469.5" y="71.65" width="38.78" height="38.8"/><rect class="cls-15" x="508.28" y="71.65" width="38.78" height="38.8"/><rect class="cls-15" x="0.5" y="110.35" width="236.34" height="38.68"/><rect class="cls-15" x="0.5" y="149.22" width="236.34" height="38.68"/><rect class="cls-15" x="0.5" y="188.07" width="236.34" height="38.68"/><rect class="cls-15" x="0.5" y="226.75" width="236.34" height="38.68"/><rect class="cls-15" x="0.5" y="265.67" width="236.34" height="38.68"/><rect class="cls-15" x="0.5" y="304.47" width="236.34" height="38.68"/><rect class="cls-15" x="0.5" y="343.27" width="236.34" height="38.68"/><rect class="cls-15" x="236.85" y="381.85" width="38.78" height="38.8"/><rect class="cls-15" x="275.63" y="381.85" width="38.78" height="38.8"/><rect class="cls-15" x="314.41" y="381.85" width="38.78" height="38.8"/><rect class="cls-15" x="353.19" y="381.85" width="38.78" height="38.8"/><rect class="cls-15" x="391.97" y="381.85" width="38.78" height="38.8"/><rect class="cls-15" x="430.75" y="381.85" width="38.78" height="38.8"/><rect class="cls-15" x="0.5" y="381.97" width="236.34" height="38.68"/><rect class="cls-15" x="469.5" y="381.85" width="38.78" height="38.8"/><rect class="cls-15" x="508.28" y="381.85" width="38.78" height="38.8"/><rect class="cls-15" x="0.5" y="381.97" width="236.34" height="38.68"/></g><g id="slant"><line class="cls-15" x1="275" y1="72.15" x2="341" y2="8.15"/><line class="cls-15" x1="314" y1="72.15" x2="380" y2="8.15"/><line class="cls-15" x1="353" y1="72.15" x2="419" y2="8.15"/><line class="cls-15" x1="392" y1="72.15" x2="458" y2="8.15"/><line class="cls-15" x1="430" y1="72.15" x2="496" y2="8.15"/><line class="cls-15" x1="469" y1="72.15" x2="535" y2="8.15"/><line class="cls-15" x1="508" y1="72.15" x2="574" y2="8.15"/><line class="cls-15" x1="547" y1="72.15" x2="613" y2="8.15"/></g><g id="dots"><circle class="cls-16" cx="256.5" cy="129.65" r="9"/><circle class="cls-16" cx="294.7" cy="90.65" r="9"/><circle class="cls-16" cx="333.5" cy="90.65" r="9"/><circle class="cls-16" cx="256.5" cy="246.65" r="9"/><circle class="cls-16" cx="256.5" cy="285.65" r="9"/><circle class="cls-16" cx="256.5" cy="323.65" r="9"/><circle class="cls-16" cx="256.5" cy="323.65" r="9"/><circle class="cls-16" cx="333.5" cy="129.65" r="9"/><circle class="cls-16" cx="372.5" cy="129.65" r="9"/><circle class="cls-16" cx="372.5" cy="90.65" r="9"/><circle class="cls-16" cx="411.5" cy="129.65" r="9"/><circle class="cls-16" cx="411.5" cy="90.65" r="9"/><circle class="cls-16" cx="450.5" cy="90.65" r="9"/><circle class="cls-16" cx="488.5" cy="129.65" r="9"/><circle class="cls-16" cx="488.5" cy="90.65" r="9"/><circle class="cls-16" cx="527.5" cy="129.65" r="9"/><circle class="cls-16" cx="527.5" cy="90.65" r="9"/><circle class="cls-16" cx="294.7" cy="168.65" r="9"/><circle class="cls-16" cx="333.5" cy="168.65" r="9"/><circle class="cls-16" cx="372.5" cy="168.65" r="9"/><circle class="cls-16" cx="411.5" cy="168.65" r="9"/><circle class="cls-16" cx="488.5" cy="168.65" r="9"/><circle class="cls-16" cx="527.5" cy="168.65" r="9"/><circle class="cls-16" cx="294.7" cy="207.65" r="9"/><circle class="cls-16" cx="294.7" cy="207.65" r="9"/><circle class="cls-16" cx="294.7" cy="323.65" r="9"/><circle class="cls-16" cx="333.5" cy="207.65" r="9"/><circle class="cls-16" cx="333.5" cy="246.65" r="9"/><circle class="cls-16" cx="333.5" cy="285.65" r="9"/><circle class="cls-16" cx="333.5" cy="362.65" r="9"/><circle class="cls-16" cx="372.5" cy="207.65" r="9"/><circle class="cls-16" cx="372.5" cy="246.65" r="9"/><circle class="cls-16" cx="411.5" cy="323.65" r="9"/><circle class="cls-16" cx="411.5" cy="362.65" r="9"/><circle class="cls-16" cx="450.5" cy="323.65" r="9"/><circle class="cls-16" cx="450.5" cy="362.65" r="9"/><circle class="cls-16" cx="450.5" cy="401.65" r="9"/><circle class="cls-16" cx="527.5" cy="401.65" r="9"/><circle class="cls-16" cx="411.5" cy="207.65" r="9"/><circle class="cls-16" cx="411.5" cy="246.65" r="9"/><circle class="cls-16" cx="411.5" cy="285.65" r="9"/><circle class="cls-16" cx="488.5" cy="207.65" r="9"/><circle class="cls-16" cx="488.5" cy="246.65" r="9"/><circle class="cls-16" cx="488.5" cy="285.65" r="9"/><circle class="cls-16" cx="488.5" cy="323.65" r="9"/><circle class="cls-16" cx="488.5" cy="362.65" r="9"/><circle class="cls-16" cx="527.5" cy="207.65" r="9"/><circle class="cls-16" cx="527.5" cy="246.65" r="9"/><circle class="cls-16" cx="527.5" cy="285.65" r="9"/><circle class="cls-16" cx="527.5" cy="323.65" r="9"/><circle class="cls-16" cx="527.5" cy="362.65" r="9"/></g></svg>