<svg xmlns="http://www.w3.org/2000/svg" xmlns:xlink="http://www.w3.org/1999/xlink" viewBox="0 0 928.19 524.02"><defs><style>.cls-1{fill:#642d80;}.cls-2{fill:none;}.cls-3,.cls-4,.cls-6{font-size:18px;}.cls-3,.cls-6,.cls-7{fill:#292a3a;}.cls-3{font-family:Helvetica-Bold, Helvetica;font-weight:700;}.cls-10,.cls-11,.cls-4{font-family:Roboto-Light, Roboto;}.cls-11,.cls-20,.cls-5,.cls-7,.cls-9{font-size:12px;}.cls-5,.cls-7{font-family:Helvetica, Helvetica;}.cls-19,.cls-20,.cls-6,.cls-8,.cls-9{font-family:Roboto-Regular, Roboto;}.cls-10,.cls-19,.cls-8{font-size:125px;}.cls-10,.cls-11,.cls-26,.cls-8,.cls-9{fill:#1f1f2c;}.cls-12{clip-path:url(#clip-path);}.cls-13{clip-path:url(#clip-path-2);}.cls-14{clip-path:url(#clip-path-3);}.cls-15{clip-path:url(#clip-path-4);}.cls-16,.cls-19,.cls-20{fill:#8d38a0;}.cls-17{clip-path:url(#clip-path-5);}.cls-18{fill:#b76cab;}.cls-21{clip-path:url(#clip-path-7);}.cls-22{clip-path:url(#clip-path-8);}.cls-23{fill:#eb4dc7;}.cls-24{clip-path:url(#clip-path-9);}.cls-25{clip-path:url(#clip-path-10);}</style><clipPath id="clip-path"><circle class="cls-1" cx="59.54" cy="413.21" r="25"/></clipPath><clipPath id="clip-path-2"><polygon class="cls-1" points="-690.35 957.52 584.65 947.52 584.65 -702.48 -690.35 -692.48 -690.35 957.52"/></clipPath><clipPath id="clip-path-3"><circle class="cls-2" cx="252.54" cy="413.21" r="25"/></clipPath><clipPath id="clip-path-4"><polygon class="cls-2" points="-690.35 957.52 584.65 947.52 584.65 -702.48 -690.35 -692.48 -690.35 957.52"/></clipPath><clipPath id="clip-path-5"><circle class="cls-2" cx="444.54" cy="413.21" r="25"/></clipPath><clipPath id="clip-path-7"><circle class="cls-2" cx="637.95" cy="413.21" r="25"/></clipPath><clipPath id="clip-path-8"><polygon class="cls-2" points="-496.94 957.52 778.07 947.52 778.07 -702.48 -496.94 -692.48 -496.94 957.52"/></clipPath><clipPath id="clip-path-9"><circle class="cls-2" cx="832.95" cy="413.21" r="25"/></clipPath><clipPath id="clip-path-10"><polygon class="cls-2" points="-301.94 957.52 973.07 947.52 973.07 -702.48 -301.94 -692.48 -301.94 957.52"/></clipPath></defs><title>flytabs-style</title><g id="Layer_4" data-name="Layer 4"><text class="cls-3" transform="translate(22.65 36.79)">Typeface</text><text class="cls-4" transform="translate(540.65 73.79)">Roboto Light</text><text class="cls-5" transform="translate(540.65 104.79)">Body copy (10-12px) </text><text class="cls-5" transform="translate(540.65 120.79)">HEX #1F1F2C</text><text class="cls-6" transform="translate(22.65 73.79)">Roboto Regular</text><text class="cls-7" transform="translate(22.65 104.79)">Headlines (12-20px) </text><text class="cls-7" transform="translate(22.65 120.79)">HEX #1F1F2C<tspan x="0" y="14.4">HEX #8D38A0</tspan></text><text class="cls-8" transform="translate(22.65 255.79)">Aa</text><text class="cls-9" transform="translate(23.65 277.79)">ABCDEFGHIJKLMNOPQRSTUVWXYZ</text><text class="cls-9" transform="translate(23.65 293.79)">abcdefghijklmnopqrstuvwxyz</text><text class="cls-9" transform="translate(23.65 309.79)">(.,;:’”$#@!&amp;*) 0123456789</text><text class="cls-10" transform="translate(540.65 255.79)">Aa</text><text class="cls-11" transform="translate(540.65 277.79)">ABCDEFGHIJKLMNOPQRSTUVWXYZ</text><text class="cls-11" transform="translate(540.65 293.79)">abcdefghijklmnopqrstuvwxyz</text><text class="cls-11" transform="translate(540.65 309.79)">(.,;:’”$#@!&amp;*) 0123456789</text><text class="cls-3" transform="translate(23.65 366.79)">Colors</text><text class="cls-7" transform="translate(34.54 469.21)">CMYK 13/65/0/50 </text><text class="cls-7" transform="translate(34.54 485.21)">RGB 111/45/128 </text><text class="cls-7" transform="translate(34.54 501.21)">HEX #6F2D80</text><circle class="cls-1" cx="59.54" cy="413.21" r="25"/><g class="cls-12"><polygon class="cls-1" points="-690.35 957.52 584.65 947.52 584.65 -702.48 -690.35 -692.48 -690.35 957.52"/><g class="cls-13"><rect class="cls-1" x="29.54" y="383.21" width="60" height="60"/></g></g><text class="cls-7" transform="translate(226.54 469.21)">CMYK 12/65/0/37</text><text class="cls-7" transform="translate(226.54 485.21)">RGB 141/56/160 </text><text class="cls-7" transform="translate(226.54 501.21)">HEX #8D38A0</text><g class="cls-14"><g class="cls-15"><rect class="cls-16" x="222.54" y="383.21" width="60" height="60"/></g></g><g class="cls-17"><g class="cls-15"><rect class="cls-18" x="414.54" y="383.21" width="60" height="60"/></g></g><text class="cls-7" transform="translate(419.54 469.21)">CMYK 0/41/7/28</text><text class="cls-7" transform="translate(419.54 485.21)">RGB 183/108/171</text><text class="cls-7" transform="translate(419.54 501.21)">HEX #B76CAB</text><text class="cls-19" transform="translate(243.02 255.79)">Aa</text><text class="cls-20" transform="translate(244.02 277.79)">ABCDEFGHIJKLMNOPQRSTUVWXYZ</text><text class="cls-20" transform="translate(244.02 293.79)">abcdefghijklmnopqrstuvwxyz</text><text class="cls-20" transform="translate(244.02 309.79)">(.,;:’”$#@!&amp;*) 0123456789</text><g class="cls-21"><g class="cls-22"><rect class="cls-23" x="607.95" y="383.21" width="60" height="60"/></g></g><text class="cls-7" transform="translate(612.95 469.21)">CMYK 0/67/15/8</text><text class="cls-7" transform="translate(612.95 485.21)">RGB 235/77/199 </text><text class="cls-7" transform="translate(612.95 501.21)">HEX #EB4DC7</text><g class="cls-24"><g class="cls-25"><rect class="cls-26" x="802.95" y="383.21" width="60" height="60"/></g></g><text class="cls-7" transform="translate(807.95 469.21)">CMYK 30/30/0/83 </text><text class="cls-7" transform="translate(807.95 485.21)">RGB 31/31/44 </text><text class="cls-7" transform="translate(807.95 501.21)">HEX #1F1F2C</text></g></svg>