<?xml version="1.0" encoding="UTF-8"?>
<svg width="24px" height="24px" viewBox="0 0 24 24" version="1.1" xmlns="http://www.w3.org/2000/svg" xmlns:xlink="http://www.w3.org/1999/xlink">
    <!-- Generator: Sketch 57.1 (83088) - https://sketch.com -->
    <title>Combined Shape</title>
    <desc>Created with Sketch.</desc>
    <g id="Portfolio-2020" stroke="none" stroke-width="1" fill="none" fill-rule="evenodd">
        <g id="Case-Study---Insights-Copy" transform="translate(-316.000000, -1407.000000)" fill="#12121C">
            <g id="Group-2-Copy" transform="translate(308.000000, 1399.000000)">
                <g id="Group-7">
                    <path d="M28.3819589,17.2300928 C28.5725059,17.2300928 28.7149124,17.3965695 28.7149124,17.565043 L28.7149124,17.565043 L28.7149124,30.5561665 L30.8409901,30.5561665 C31.0074669,30.5561665 31.1518701,30.698573 31.1759404,30.88912 C31.1759404,31.0575935 31.0315188,31.2 30.8650604,31.2 L30.8650604,31.2 L9.13295355,31.2 C8.94240652,31.2 8.8,31.0575935 8.8,30.88912 C8.8,30.698573 8.94240652,30.5561665 9.13295355,30.5561665 L9.13295355,30.5561665 L11.234961,30.5561665 L11.234961,23.177076 C11.234961,23.0086026 11.4014378,22.8421258 11.5699112,22.8421258 L11.5699112,22.8421258 L15.0558668,22.8421258 C15.2464138,22.8421258 15.3908353,23.0086026 15.3908353,23.177076 L15.3908353,23.177076 L15.3908353,30.5561665 L17.8979888,30.5561665 L17.8979888,21.4100373 C17.8979888,21.2415455 18.0403953,21.0750687 18.2329574,21.0750687 L18.2329574,21.0750687 L21.7189129,21.0750687 C21.9094599,21.0750687 22.0538815,21.2415455 22.0538815,21.4100373 L22.0538815,21.4100373 L22.0538815,30.5561665 L24.561035,30.5561665 L24.561035,17.565043 C24.561035,17.3965695 24.7034415,17.2300928 24.8939885,17.2300928 L24.8939885,17.2300928 Z M14.720917,23.5100297 L11.88081,23.5100297 L11.88081,30.5561662 L14.720917,30.5561662 L14.720917,23.5100297 Z M21.3598927,21.7429908 L18.5418411,21.7429908 L18.5418411,30.5561668 L21.3598927,30.5561668 L21.3598927,21.7429908 Z M28.0229386,17.8979966 L25.1808166,17.8979966 L25.1808166,30.5561668 L28.0229386,30.5561668 L28.0229386,17.8979966 Z M29.5051686,8.8 C29.7318211,8.8 29.9564584,8.89627225 30.1249319,9.06274903 C30.3154789,9.27736631 30.4358302,9.54012411 30.5300962,9.80286358 L30.5300962,9.80286358 L30.5300962,12.596845 C30.5300962,13.1704828 30.0768097,13.6237877 29.503172,13.6237877 C28.9776564,13.6237877 28.5243699,13.1704828 28.5002996,12.6449855 C27.4031612,13.9105974 26.1596047,15.0799465 24.8237971,16.1068891 C24.7796683,16.1509996 24.7235044,16.1690614 24.6653437,16.1690614 C24.5610393,16.1690614 24.4467147,16.1128975 24.3704923,16.036675 C24.2501593,15.916342 24.2982998,15.7017248 24.4407063,15.5833885 C25.9690576,14.4361129 27.3550207,13.0501498 28.5965807,11.5699207 C28.6647614,11.5017216 28.7570308,11.4455577 28.8493001,11.4455577 C28.8854054,11.4455577 28.9215108,11.4555961 28.9556012,11.4756547 C29.0739375,11.4997066 29.1702185,11.6421131 29.1702185,11.7624644 L29.1702185,11.7624644 L29.1702185,12.596845 C29.1702185,12.787392 29.3366953,12.9558838 29.5272423,12.9558838 C29.6957158,12.9558838 29.8862628,12.8114623 29.8862628,12.596845 L29.8862628,12.596845 L29.8862628,9.80286357 C29.8862628,9.60229642 29.6977124,9.44183721 29.4971453,9.44183721 C29.4831135,9.44183721 29.4690633,9.44384306 29.4570282,9.44584892 L29.4570282,9.44584892 L26.6630468,9.80286357 C26.4223626,9.82693382 26.2558858,10.0656214 26.3280966,10.2802387 C26.3722254,10.4346803 26.5346904,10.5469898 26.6911288,10.5469898 C26.7051606,10.5469898 26.7192107,10.5449931 26.7332425,10.5429781 L26.7332425,10.5429781 L27.7842554,10.4246419 C27.7942755,10.4226452 27.8063106,10.4226452 27.8163491,10.4226452 C28.1051738,10.4226452 28.2556037,10.7435453 28.0951354,10.9742094 C24.4407062,15.5111776 19.9759302,17.8037321 16.8229283,18.9008704 C13.1223556,20.2146227 10.2320931,20.3349557 10.2080228,20.3349557 C9.99340552,20.3349557 9.850999,20.5255027 9.850999,20.74012 C9.850999,20.9326637 9.99340552,21.0750703 10.2080228,21.0750703 C10.3283741,21.0750703 13.1925514,21.0028778 17.0134754,19.6189114 C19.1636231,18.8787968 21.1452793,17.8518726 23.0085992,16.608316 C23.0587547,16.5762223 23.118912,16.5601755 23.1790876,16.5601755 C23.2894005,16.5601755 23.3997317,16.6123277 23.461904,16.704597 C23.5581667,16.8490002 23.5100445,17.0636175 23.365623,17.1578835 C21.4802293,18.4234953 19.4263624,19.4745082 17.230089,20.238693 C13.3129023,21.6246561 10.3283739,21.7429924 10.2080226,21.7429924 L10.1839523,21.7429924 C9.6343848,21.7429924 9.18109829,21.3137578 9.15702804,20.7641903 C9.13295778,20.1905525 9.5882593,19.7131774 10.1358118,19.6891255 C10.1839522,19.6891255 12.9779336,19.5707709 16.5842404,18.2810888 C19.4745026,17.2541642 23.5822366,15.2002975 26.9959997,11.2128965 L26.9959997,11.2128965 L26.7813824,11.2369668 C26.7492888,11.2389635 26.7171951,11.2409785 26.6851197,11.2409785 C26.147569,11.2409785 25.6561621,10.8699229 25.6120516,10.3283604 C25.5398409,9.77879295 25.9449869,9.2292254 26.4945727,9.18309075 L26.4945727,9.18309075 L29.3126244,8.82407026 C29.3768117,8.80802342 29.4409807,8.8 29.5051681,8.8 Z" id="Combined-Shape"></path>
                </g>
            </g>
        </g>
    </g>
</svg>