<?xml version="1.0" encoding="UTF-8"?>
<svg width="24px" height="24px" viewBox="0 0 24 24" version="1.1" xmlns="http://www.w3.org/2000/svg" xmlns:xlink="http://www.w3.org/1999/xlink">
    <!-- Generator: Sketch 57.1 (83088) - https://sketch.com -->
    <title>Combined Shape</title>
    <desc>Created with Sketch.</desc>
    <g id="Portfolio-2020" stroke="none" stroke-width="1" fill="none" fill-rule="evenodd">
        <g id="Case-Study---Insights-Copy" transform="translate(-316.000000, -1287.000000)" fill="#12121C">
            <g id="Group-2" transform="translate(308.000000, 1279.000000)">
                <g id="Group">
                    <path d="M10.4644375,15.0989216 C10.6134482,15.0989216 10.7609046,15.2293061 10.7954404,15.3746254 L10.8030032,15.4374829 L10.8030032,23.3542236 L29.292279,23.3542236 L29.292279,21.7141038 C29.292279,21.5438149 29.4382501,21.3998695 29.6308449,21.3998695 C29.7750744,21.3998695 29.9029194,21.5056253 29.936503,21.6430786 L29.9450792,21.7141038 L29.9450792,23.3542236 L30.9587468,23.3542236 C31.1059811,23.3542236 31.2361445,23.4659757 31.2663849,23.6229403 L31.2729857,23.6927849 L31.2729857,25.4545396 C31.2729857,25.623056 31.1612265,25.7558797 31.0205605,25.7864526 L30.9587468,25.7931009 L24.1996193,25.7931009 L26.9040816,30.7174932 C26.9750369,30.8371024 26.9750369,30.9587466 26.9040816,31.0540288 C26.8651585,31.112421 26.7950938,31.1708072 26.7073826,31.1918261 L26.6385013,31.2 L24.9233795,31.2 C24.8276884,31.2 24.7307009,31.137717 24.6594021,31.0629821 L24.6111663,31.0053749 L23.8610534,29.6308448 L19.5408076,29.6308448 C19.3725399,29.6308448 19.204272,29.4848736 19.204272,29.2922835 C19.204272,29.123759 19.3331021,28.9909342 19.4780359,28.9603612 L19.5408076,28.9537129 L23.5001908,28.9537129 L23.1129709,28.2056258 L16.9823163,28.2056258 L16.5484635,28.9537129 L18.2129057,28.9537129 C18.3831991,28.9537129 18.5514716,29.099684 18.5514716,29.2922835 C18.5514716,29.4607999 18.422638,29.5936236 18.2763463,29.6241964 L18.2129057,29.6308448 L16.1855706,29.6308448 L15.4374881,31.0053749 C15.3985612,31.1026902 15.314223,31.1688611 15.2197653,31.1914368 L15.1475761,31.2 L13.410153,31.2 C13.3371675,31.2 13.2175583,31.127019 13.1445727,31.0540288 C13.1080822,30.9643219 13.0989596,30.8734704 13.1172048,30.7934541 L13.1445727,30.7174932 L15.8713362,25.7931009 L9.13856132,25.7931009 C8.96826839,25.7931009 8.83677708,25.6813417 8.80656508,25.5243816 L8.8,25.4545396 L8.8,23.6927849 C8.8,23.5242604 8.91020469,23.3914428 9.0681364,23.3608716 L9.13856132,23.3542236 L10.1279019,23.3542236 L10.1279019,15.4374829 C10.1279019,15.2692197 10.2718427,15.0989216 10.4644375,15.0989216 Z M17.5864576,25.7931012 L16.6214487,25.7931012 L14.0142989,30.5228681 L14.9793078,30.5228681 L17.5864576,25.7931012 Z M23.4758635,25.7931012 L22.5108499,25.7931012 L25.0936726,30.5228681 L26.0586816,30.5228681 L23.4758635,25.7931012 Z M21.7850638,25.7931012 L18.3588719,25.7931012 L17.369536,27.6035098 L22.77643,27.6035098 L21.7850638,25.7931012 Z M30.6201804,23.9826926 L9.49942796,23.9826926 L9.49942796,25.1403055 L30.6201804,25.1403055 L30.6201804,23.9826926 Z M24.9963595,13.4831367 C25.6957927,13.4831367 26.2756074,14.0609258 26.2756074,14.7846859 C26.2756074,15.4861355 25.6957927,16.0416325 24.9963595,16.0416325 C24.87472,16.0416325 24.7307791,16.0173055 24.6111653,15.9929693 L24.6111653,15.9929693 L22.7764297,18.1885767 C22.9933561,18.4055031 23.11297,18.6954105 23.11297,19.0339718 C23.11297,19.733405 22.5351763,20.3132197 21.8337221,20.3132197 C21.1342935,20.3132197 20.5788012,19.733405 20.5788012,19.0339718 C20.5788012,18.9366639 20.6031281,18.8900356 20.6031281,18.8170454 L20.6031281,18.8170454 L18.8170511,17.8277049 C18.5757977,17.9716503 18.3102174,18.0932945 17.9959784,18.0932945 C17.8520376,18.0932945 17.706071,18.0689582 17.5864572,18.0446313 L17.5864572,18.0446313 L15.8247072,20.3375466 C16.0416289,20.5788 16.1612428,20.8443804 16.1612428,21.1829417 C16.1612428,21.882375 15.5834537,22.4378627 14.9063265,22.4378627 C14.2068933,22.4378627 13.6270786,21.8823749 13.6270786,21.1829417 C13.6270786,20.4814921 14.2068933,19.9036939 14.9063265,19.9036939 C15.052293,19.9036939 15.1962339,19.9503314 15.3178734,19.9746584 L15.3178734,19.9746584 L17.0796234,17.681743 C16.8627017,17.4404896 16.7410621,17.1749092 16.7410621,16.8383736 C16.7410621,16.1369147 17.3208769,15.5571 17.9959784,15.5571 C18.6954116,15.5571 19.2752263,16.1369147 19.2752263,16.8383736 C19.2752263,16.9823098 19.2508993,17.1262553 19.179944,17.2965442 L19.179944,17.2965442 L20.8443815,18.2129037 C21.0856349,17.9229963 21.4485278,17.7303969 21.8337221,17.7303969 C21.9553616,17.7303969 22.0993024,17.7790509 22.220942,17.8033779 L22.220942,17.8033779 L24.0800046,15.605754 C23.8610525,15.3888276 23.7414433,15.0745932 23.7414433,14.7623846 C23.7414433,14.0609257 24.321258,13.4831367 24.9963595,13.4831367 Z M14.8333409,20.5788001 C14.4724737,20.5788001 14.2068933,20.8687074 14.2068933,21.207278 C14.2068933,21.5681406 14.4968053,21.8337209 14.8333409,21.8337209 C15.1719068,21.8337209 15.4618142,21.5681406 15.4618142,21.207278 C15.4618142,20.8443804 15.1962338,20.5788001 14.8333409,20.5788001 Z M18.4784875,8.8 L21.5924706,8.8 C21.760991,8.8 21.8938153,8.92882665 21.9243882,9.0737627 L21.9310365,9.13653582 L21.9310365,10.2231843 L30.9587481,10.2231843 C31.1059824,10.2231843 31.2361458,10.3349434 31.2663862,10.508207 L31.272987,10.5860818 L31.272987,12.3721542 C31.272987,12.5163878 31.1657429,12.6442367 31.0291372,12.6778214 L30.9587481,12.6863978 L29.9450805,12.6863978 L29.9450805,20.434866 C29.9450805,20.6031292 29.799114,20.7470747 29.6308462,20.7470747 C29.4623258,20.7470747 29.3295015,20.6368664 29.2989286,20.4965912 L29.2922803,20.434866 L29.2922803,12.6620706 L10.8030046,12.6620706 L10.8030046,14.1095817 C10.8030046,14.3021811 10.6347368,14.448143 10.4644386,14.448143 C10.2959182,14.448143 10.1646484,14.3363909 10.1344641,14.1794264 L10.127903,14.1095817 L10.127903,12.6620706 L9.13856248,12.6620706 C8.96826954,12.6620706 8.83677823,12.5503115 8.80656623,12.4096423 L8.80000115,12.347827 L8.80000115,10.5617546 C8.80000115,10.3932301 8.91020585,10.2604054 9.06813755,10.2298324 L9.13856248,10.223184 L18.1662788,10.223184 L18.1662788,9.1365356 C18.1662788,8.98929723 18.2764835,8.84206594 18.416761,8.80755872 L18.4784875,8.8 L21.5924706,8.8 Z M21.8093952,18.4055032 C21.448528,18.4055032 21.1829477,18.6954105 21.1829477,19.0339719 C21.1829477,19.3968694 21.472855,19.6624498 21.8093952,19.6624498 C22.1479566,19.6624498 22.4378685,19.3968694 22.4378685,19.0339719 C22.4378685,18.6710835 22.1722882,18.4055032 21.8093952,18.4055032 Z M17.9473247,16.1855687 C17.5864575,16.1855687 17.3208772,16.499803 17.3208772,16.8383736 C17.3208772,17.1992362 17.6107891,17.4648166 17.9473247,17.4648166 C18.3102177,17.4648166 18.575798,17.1992362 18.575798,16.8383736 C18.575798,16.4754761 18.3102177,16.1855687 17.9473247,16.1855687 Z M24.9963595,14.1339067 C24.6334666,14.1339067 24.3678862,14.448141 24.3678862,14.7846859 C24.3678862,15.1475742 24.6821252,15.4131546 24.9963595,15.4131546 C25.3349255,15.4131546 25.6471341,15.0989202 25.6471341,14.7846859 C25.6471341,14.423814 25.3592525,14.1339067 24.9963595,14.1339067 Z M30.6201823,10.875989 L9.49942978,10.875989 L9.49942978,12.0335927 L30.6201823,12.0335927 L30.6201823,10.875989 Z M21.2559354,9.47509692 L18.8170535,9.47509692 L18.8170535,10.223184 L21.2559354,10.223184 L21.2559354,9.47509692 Z" id="Combined-Shape"></path>
                </g>
            </g>
        </g>
    </g>
</svg>