<?xml version="1.0" encoding="UTF-8"?>
<svg width="21px" height="24px" viewBox="0 0 21 24" version="1.1" xmlns="http://www.w3.org/2000/svg" xmlns:xlink="http://www.w3.org/1999/xlink">
    <!-- Generator: Sketch 57.1 (83088) - https://sketch.com -->
    <title>Combined Shape</title>
    <desc>Created with Sketch.</desc>
    <g id="Portfolio-2020" stroke="none" stroke-width="1" fill="none" fill-rule="evenodd">
        <g id="Case-Study---Insights-Copy" transform="translate(-318.000000, -1542.000000)" fill="#12121C">
            <g id="Group-2-Copy-2" transform="translate(308.000000, 1534.000000)">
                <g id="Group-9">
                    <path d="M18.2799163,15.4521646 C19.0130819,15.4521646 19.6006592,16.0225425 19.6672491,16.7372064 L19.6735377,16.8727927 L19.6735377,17.5437129 L20.988361,17.5437129 L20.988361,16.8727927 C20.988361,16.1417575 21.5587297,15.5283775 22.2734012,15.4587447 L22.4089891,15.4521646 L22.4900403,15.4521646 C23.2667756,15.4521646 23.9106787,16.0960678 23.9106787,16.8727927 C23.9106787,17.6059583 23.3403008,18.2174768 22.6256283,18.2868833 L22.4900403,18.2934414 L21.7380792,18.2934414 L21.7380792,24.5928607 L22.8367558,24.5928607 C22.8637728,23.6562762 23.2397585,22.771483 23.8296275,22.1005628 C23.8994233,22.0172688 23.9984893,21.9767329 24.0975449,21.9767329 C24.1853555,21.9767329 24.275409,22.0104991 24.3384453,22.0735457 C24.4735306,22.208631 24.5005477,22.4495417 24.2844112,22.6634147 C23.8218495,23.1996593 23.5360509,23.8680192 23.4879104,24.5906557 L23.4806589,24.8089972 L23.4806589,28.6138757 C23.4806589,29.2037447 23.0799092,29.7125626 22.4900402,29.8476478 C22.4675294,31.0769137 21.4386383,32 20.2724088,32 C20.0134937,32 19.7500825,31.9549578 19.4866713,31.8581656 C19.3268221,31.7771144 19.2187539,31.5902378 19.272788,31.3763648 C19.3335712,31.2525349 19.4596542,31.1602283 19.6105012,31.1602283 C19.6555228,31.1602283 19.7050506,31.1692203 19.7545888,31.1872454 C19.9166911,31.2435223 20.0810363,31.2682966 20.2431387,31.2682966 C20.9784248,31.2682966 21.6618552,30.7377994 21.7772579,29.9902754 L21.7921133,29.8476479 L18.7909872,29.8476479 C18.7909872,30.0345244 18.8427682,30.2506609 18.9238194,30.4104998 C19.0048705,30.5703593 18.9238194,30.7864958 18.7369531,30.8923006 C18.6941744,30.9148114 18.6513956,30.9238239 18.6063741,30.9238239 C18.4825442,30.9238239 18.3587143,30.8450156 18.2799162,30.7054446 C18.1470841,30.4104998 18.0660329,30.1155756 18.0660329,29.8206308 C17.5464772,29.6730872 17.1631244,29.2492806 17.1072214,28.7015352 L17.1001781,28.562105 L17.1001781,24.7279461 C17.1001781,23.8431528 16.6994286,23.0123937 16.0555254,22.3955076 C15.3846052,21.7786215 14.8487703,21.028893 14.5268187,20.1981339 C14.4480207,20.0360315 14.5538358,19.7951208 14.7159381,19.7140697 C14.7497146,19.7050777 14.7834808,19.7005714 14.8172573,19.7005714 C14.9748533,19.7005714 15.1324494,19.7973843 15.1977389,19.9302061 C15.4926734,20.6529176 15.9744742,21.3238378 16.5643432,21.8596727 C17.3062685,22.5267721 17.729747,23.4010554 17.8330068,24.3532609 L17.8521495,24.5928608 L18.9508364,24.5928608 L18.9508364,22.6363978 C18.9508364,22.4495417 19.1106856,22.2626652 19.3268221,22.2626652 C19.4903301,22.2626652 19.6331531,22.4057426 19.6663041,22.5666908 L19.6735376,22.6363978 L19.6735376,24.5410901 L20.9883609,24.5410901 L20.9883609,18.2934414 L19.6735376,18.2934414 L19.6735376,21.1887524 C19.6735376,21.4048889 19.5136883,21.5647278 19.3268221,21.5647278 C19.1377026,21.5647278 18.9916782,21.4423511 18.958127,21.2669624 L18.9508364,21.1887524 L18.9508364,18.2934414 L18.1741011,18.2934414 C17.3951126,18.2934414 16.7804797,17.6517811 16.7804797,16.8727926 C16.7804797,16.1417574 17.3249296,15.5283775 18.0384303,15.4587447 L18.1741011,15.4521646 L18.2799163,15.4521646 Z M22.8637729,27.542206 L17.8791667,27.542206 L17.8791667,28.508071 C17.8791667,28.7735028 18.0524122,28.9951836 18.321764,29.0368654 L18.4150016,29.0439059 L22.3009209,29.0439059 C22.566362,29.0439059 22.7880354,28.8487682 22.8297157,28.5947409 L22.8367558,28.508071 L22.8637729,28.508071 L22.8637729,27.542206 Z M22.8367558,25.2907981 L17.8521496,25.2907981 L17.8521496,26.8195151 L22.8367558,26.8195151 L22.8367558,25.2907981 Z M27.0919183,21.4881804 C27.1324474,21.4881804 27.1709736,21.4951856 27.207497,21.5098605 L27.2607801,21.5377083 L28.6273844,22.3414709 C28.9223189,22.5035732 28.7894868,23.0123911 28.4675352,23.0123911 C28.2513987,23.0123911 28.2784158,22.985374 26.8847944,22.1816114 C26.7249452,22.0735432 26.643894,21.832653 26.7519622,21.6727935 C26.8240008,21.5624825 26.9613393,21.4881804 27.0919183,21.4881804 Z M13.3673513,21.355339 C13.5001835,21.355339 13.6240134,21.4273982 13.6960623,21.5377093 C13.7669731,21.6795488 13.755152,21.881726 13.5897043,22.000935 L13.5091858,22.0465271 L12.1425917,22.8502897 C12.1155746,22.8773068 12.0345235,22.8773068 11.9804893,22.8773068 C11.633452,22.8773068 11.5154823,22.4385812 11.7581726,22.2479137 L11.8206401,22.2086294 L13.1872444,21.4048874 C13.2457745,21.3711006 13.3088109,21.355339 13.3673513,21.355339 Z M20.3894801,11.4424018 C21.9294426,11.4424018 23.4964217,12.0097602 24.7684663,13.2818048 C25.9459512,14.4615428 26.5898543,16.0150133 26.6168714,17.6517779 C26.6168714,17.678795 26.6168714,17.7035692 26.5898543,17.7035692 C26.5898543,19.0724267 26.1350706,20.3849866 25.3043012,21.4836735 C25.2255031,21.5940051 25.1286903,21.6480187 25.0251283,21.6480187 C24.9508263,21.6480187 24.8720282,21.6210222 24.7954833,21.5647247 C24.633381,21.4296394 24.6063639,21.2427833 24.7414492,21.0559068 C25.3836192,20.164358 25.7764038,19.0905567 25.8330324,17.9814864 L25.8401361,17.7035691 L25.8401361,17.6517778 C25.8137777,14.7480298 23.4902059,12.3049821 20.6151303,12.1624484 L20.3984928,12.1561005 L20.30168,12.1561005 C17.2622813,12.1561005 14.7429559,14.6281514 14.7429559,17.7035693 C14.7429559,18.0255106 14.7947369,18.2934383 14.821754,18.5883626 C14.848771,18.777482 14.7159389,18.9643585 14.5268195,18.9913756 C14.5088149,18.9936184 14.4908001,18.9936184 14.4727853,18.9936184 C14.2859191,18.9936184 14.1508441,18.8675457 14.1260698,18.6964308 C14.0990528,18.3744895 14.0450187,18.0525276 14.0450187,17.7035693 C14.0450187,13.9459757 17.1564662,11.4424018 20.3894801,11.4424018 Z M29.7801032,17.5437092 C29.9421953,17.5437092 30.1020548,17.7035687 30.1290719,17.9197051 C30.1290719,18.0832041 30.0049623,18.2467189 29.848749,18.2850429 L29.7801032,18.2934377 L28.1725985,18.2934377 C27.956462,18.2934377 27.7966128,18.1065611 27.7966128,17.9197051 C27.7966128,17.7305857 27.9189974,17.5845534 28.094388,17.5510003 L28.1725985,17.5437092 L29.7801032,17.5437092 Z M12.3834904,17.410888 C12.5703567,17.410888 12.7594761,17.5707269 12.7594761,17.7846205 C12.7594761,17.9501 12.6146816,18.1138466 12.4532971,18.1521976 L12.3834904,18.1605959 L10.7759857,18.1605959 C10.5598492,18.1605959 10.4,17.9737399 10.4,17.7846205 C10.4,17.5974636 10.5223846,17.4516923 10.6977752,17.4181738 L10.7759857,17.410888 L12.3834904,17.410888 Z M18.3069332,16.2311532 L18.2011181,16.2311532 C17.8251324,16.2311532 17.5301979,16.5530944 17.5301979,16.8998099 C17.5301979,17.2416244 17.7739455,17.5164375 18.1007468,17.5635786 L18.2011181,17.5707301 L18.9778534,17.5707301 L18.9778534,16.8998099 C18.9778534,16.5530944 18.6829189,16.2311532 18.3069332,16.2311532 Z M22.4900403,16.2311532 L22.4089892,16.2311532 C22.0671934,16.2311532 21.7923735,16.4972203 21.745231,16.8060887 L21.7380793,16.8998099 L21.7380793,17.5707301 L22.4900403,17.5707301 C22.8637729,17.5707301 23.1587074,17.2758059 23.1587074,16.8998099 C23.1587074,16.5530944 22.8637729,16.2311532 22.4900403,16.2311532 Z M28.5125504,12.8045087 C28.6453826,12.8045087 28.7692125,12.8765473 28.8412614,12.986879 C28.9107338,13.1238838 28.8809599,13.30225 28.7703722,13.4340717 L28.7084293,13.4956968 L27.3148079,14.2994389 C27.2562675,14.3332051 27.1932311,14.3489667 27.1346907,14.3489667 C27.0041117,14.3489667 26.8870412,14.2769281 26.8307539,14.166617 C26.7381657,13.9794601 26.7679621,13.8112709 26.9020437,13.701267 L26.9658392,13.6577991 L28.3324435,12.8517937 C28.3909737,12.8202704 28.4540203,12.8045087 28.5125504,12.8045087 Z M12.1065645,12.6694287 C12.1470935,12.6694287 12.1866166,12.6764339 12.22314,12.6911088 L12.2754263,12.7189566 L13.6442734,13.5227192 C13.8311397,13.6307874 13.8851738,13.8176434 13.7771056,14.031537 C13.7208286,14.144091 13.5902393,14.2026314 13.4596603,14.2026314 C13.4206402,14.2026314 13.3826169,14.197629 13.3469257,14.1869596 L13.2953048,14.1666223 L11.9016937,13.3628597 C11.7395914,13.2547915 11.6855572,13.0139014 11.7666084,12.851799 C11.8409002,12.7414673 11.9759855,12.6694287 12.1065645,12.6694287 Z M25.0656513,9.28556564 C25.1309408,9.28556564 25.1939772,9.30357022 25.2502645,9.34184267 C25.4101137,9.44766806 25.4911649,9.66380453 25.3583327,9.82364346 L25.3583327,9.82364346 L24.5523272,11.2172751 C24.4735292,11.2983263 24.365461,11.3793774 24.2303757,11.3793774 C23.9624582,11.3793774 23.802609,11.0844326 23.9376943,10.8412791 L23.9376943,10.8412791 L24.7414467,9.47468505 C24.8112424,9.35309799 24.9395683,9.28556564 25.0656514,9.28556564 Z M15.5782289,9.21126289 C15.6826921,9.21126289 15.7756324,9.25881625 15.8466674,9.33431687 L15.8956742,9.3958761 L16.6994266,10.7895077 C16.8322587,11.0033808 16.6724095,11.3253426 16.377475,11.3253426 C16.2910204,11.3253426 16.1887169,11.2734699 16.1097555,11.1973898 L16.0555234,11.1362232 L15.251771,9.7696086 C15.1707199,9.58275259 15.224754,9.36885897 15.3846032,9.26079073 C15.4521458,9.22702455 15.5174354,9.21126289 15.5782289,9.21126289 Z M20.3444602,8 C20.5316081,8 20.6584263,8.10342468 20.705306,8.29067218 L20.7204459,8.37599597 L20.7204459,9.95872648 C20.7204459,10.1726201 20.5583435,10.332459 20.3444602,10.332459 C20.1809522,10.332459 20.0364041,10.2100824 20.0028219,10.0361962 L19.9954916,9.95872648 L19.9954916,8.37599597 C19.9954916,8.16210235 20.1575939,8 20.3444602,8 Z" id="Combined-Shape"></path>
                </g>
            </g>
        </g>
    </g>
</svg>