<svg xmlns="http://www.w3.org/2000/svg" viewBox="0 0 250 250"><defs><style>.cls-1{fill:#1f1f2f;stroke:#1f1f2f;stroke-miterlimit:10;stroke-width:3px;}</style></defs><title>000</title><g id="neuron"><path class="cls-1" d="M209.07,172.44c-20.66-29.87-57.87-42.45-92.7-44.32-4.78-.26-5.08,7.17-.3,7.43,30.79,1.65,62.87,11.74,83.2,36.22,7.2,8.67,22.92,36.55,2,39.16s-46.5-18.48-61.53-30.38a348.49,348.49,0,0,1-43-40.71c-.59-10.59-1.38-21.18-2.45-31.74C91.75,82.61,88,56.34,78.57,32.37,73.24,18.89,55.44-11,39.37,9.41c-25,31.72,12.28,84.92,30.55,109.38,6.19,8.28,12.78,16.33,19.67,24.15,1.73,33.57,1.25,67.28,0,100.82-.18,4.78,7.25,5.09,7.43.3,1.17-30.82,1.61-61.74.35-92.58a339.29,339.29,0,0,0,46.36,41.39c15.21,11.17,43,31.5,63.62,24.47C227.28,210.53,217.37,184.44,209.07,172.44ZM77.56,116.62c-16-21-33-46.08-37.14-72.75C39,35,38.94,22.66,44.55,14.93c12.36-17,26.15,17,29,25.24,8,22.84,11.36,47.39,13.71,71.36.62,6.36,1.12,12.74,1.56,19.12C85,126,81.19,121.38,77.56,116.62Z"/></g></svg>