<svg width="172" height="36" viewBox="0 0 172 36" fill="none" xmlns="http://www.w3.org/2000/svg">
<path fill-rule="evenodd" clip-rule="evenodd" d="M5.47709 17.4491C4.14782 15.7263 2.74184 13.6648 2.3871 11.4688C2.26954 10.7404 2.25657 9.72136 2.71547 9.08203C3.72758 7.67325 4.87735 10.4697 5.11821 11.1506C5.78324 13.0298 6.07391 15.0516 6.27648 17.026C6.33029 17.55 6.374 18.0752 6.4128 18.6007C6.09219 18.2226 5.77862 17.8398 5.47709 17.4491ZM16.3384 21.9959C14.6238 19.5425 11.5515 18.5211 8.68059 18.3811C8.28664 18.3617 8.26501 18.9741 8.65921 18.9935C11.1971 19.1172 13.8449 19.935 15.5303 21.9444C16.1275 22.6562 17.4342 24.947 15.7147 25.171C13.9904 25.3955 11.8755 23.6673 10.6322 22.6924C9.35526 21.691 8.16609 20.5634 7.07248 19.3546C7.01982 18.4816 6.95019 17.6099 6.85744 16.7402C6.63325 14.6405 6.31637 12.4772 5.52631 10.5051C5.08211 9.39621 3.6027 6.94388 2.28661 8.62925C0.237508 11.2532 3.33274 15.6228 4.84876 17.6307C5.36189 18.3109 5.90858 18.9716 6.47924 19.6128C6.63577 22.3784 6.60965 25.1564 6.51823 27.9218C6.50521 28.3157 7.1176 28.3378 7.13065 27.9432C7.21469 25.4032 7.23797 22.8542 7.12166 20.3131C8.2999 21.5568 9.58254 22.7048 10.9589 23.7055C12.2168 24.6193 14.5164 26.2838 16.2116 25.6963C17.8537 25.1269 17.027 22.9814 16.3384 21.9959Z" fill="#1F1F2F" stroke="#1F1F2F" stroke-width="0.8"/>
<path d="M38.3627 18.4141C39.096 18.6184 39.6671 18.9881 40.0759 19.5231C40.4846 20.0581 40.689 20.7224 40.689 21.5158C40.689 22.6339 40.3163 23.4965 39.5709 24.1037C38.8255 24.7108 37.7736 25.0144 36.415 25.0144H31.0771V12.1744H36.2347C37.5452 12.1744 38.564 12.466 39.2914 13.0491C40.0188 13.6322 40.3824 14.4587 40.3824 15.5287C40.3824 16.214 40.2051 16.8061 39.8504 17.305C39.4958 17.8039 38.9999 18.1736 38.3627 18.4141ZM32.5378 17.8731H36.0003C36.9621 17.8731 37.6894 17.6807 38.1823 17.296C38.6753 16.9113 38.9217 16.3462 38.9217 15.6008C38.9217 14.1341 37.9479 13.4007 36.0003 13.4007H32.5378V17.8731ZM36.2888 23.7881C37.2987 23.7881 38.0411 23.5987 38.516 23.22C38.9908 22.8413 39.2283 22.2612 39.2283 21.4798C39.2283 19.9048 38.2485 19.1174 36.2888 19.1174H32.5378V23.7881H36.2888ZM57.9472 25.0144H56.3783L54.7913 20.7404C54.5989 20.2114 54.3315 19.8568 53.9888 19.6764C53.6462 19.4961 53.1623 19.4059 52.5371 19.4059H49.3271V25.0144H47.8664V12.1744H52.9699C54.3525 12.1744 55.4135 12.481 56.1529 13.0942C56.8922 13.7073 57.2619 14.5909 57.2619 15.7451C57.2619 16.5867 57.0425 17.293 56.6037 17.864C56.1649 18.4351 55.5307 18.8409 54.7011 19.0813C55.0738 19.1414 55.3924 19.3007 55.6569 19.5592C55.9214 19.8177 56.1438 20.1874 56.3242 20.6683L57.9472 25.0144ZM52.8437 18.1796C54.8154 18.1796 55.8012 17.3741 55.8012 15.7631C55.8012 14.9696 55.5608 14.3775 55.0799 13.9868C54.599 13.5961 53.8536 13.4007 52.8437 13.4007H49.3271V18.1796H52.8437ZM64.8721 25.0144V12.1744H72.9872V13.4007H66.3328V17.8731H72.6266V19.1174H66.3328V23.7881H72.9872V25.0144H64.8721ZM88.8749 12.1744H90.2815V25.0144H89.1273L81.3729 14.6811V25.0144H79.9843V12.1744H81.1204L88.8749 22.5077V12.1744ZM97.9458 12.1744H102.256C104.312 12.1744 105.902 12.7305 107.026 13.8425C108.15 14.9546 108.712 16.5325 108.712 18.5764C108.712 20.6322 108.15 22.2192 107.026 23.3372C105.902 24.4553 104.312 25.0144 102.256 25.0144H97.9458V12.1744ZM102.166 23.752C103.825 23.752 105.072 23.3192 105.908 22.4536C106.743 21.588 107.161 20.2956 107.161 18.5764C107.161 15.15 105.496 13.4368 102.166 13.4368H99.4246V23.752H102.166ZM125.429 25.0144L124.022 21.7142H117.314L115.889 25.0144H114.356L120.001 12.1744H121.299L126.944 25.0144H125.429ZM117.837 20.4879H123.499L120.668 13.8876L117.837 20.4879ZM151.74 12.1744H153.219V25.0144H151.74V19.1174H144.04V25.0144H142.579V12.1744H144.04V17.8731H151.74V12.1744ZM165.915 25.1586C164.231 25.1586 162.96 24.7228 162.1 23.8512C161.241 22.9796 160.811 21.6902 160.811 19.983V12.1744H162.272V20.1092C162.272 21.3596 162.578 22.3033 163.191 22.9405C163.805 23.5777 164.712 23.8963 165.915 23.8963C167.105 23.8963 168.003 23.5777 168.611 22.9405C169.218 22.3033 169.521 21.3596 169.521 20.1092V12.1744H171V19.983C171 21.6782 170.567 22.9645 169.702 23.8422C168.836 24.7198 167.574 25.1586 165.915 25.1586Z" fill="#1F1F2F" stroke="#1F1F2F" stroke-width="0.4"/>
</svg>
