<svg width="172" height="36" viewBox="0 0 172 36" fill="none" xmlns="http://www.w3.org/2000/svg">
<path fill-rule="evenodd" clip-rule="evenodd" d="M5.02182 17.4883C3.8277 15.9407 2.56467 14.0888 2.246 12.1161C2.1404 11.4618 2.12874 10.5463 2.54098 9.97201C3.45019 8.70647 4.48305 11.2186 4.69942 11.8303C5.29683 13.5184 5.55795 15.3346 5.73992 17.1082C5.78826 17.579 5.82753 18.0508 5.86238 18.5228C5.57437 18.1832 5.29268 17.8393 5.02182 17.4883ZM14.7788 21.5729C13.2385 19.3689 10.4786 18.4514 7.89959 18.3256C7.54569 18.3082 7.52626 18.8583 7.88038 18.8758C10.1602 18.9869 12.5388 19.7214 14.0529 21.5266C14.5893 22.166 15.7632 24.2239 14.2185 24.4251C12.6695 24.6268 10.7697 23.0743 9.65278 22.1985C8.50566 21.2989 7.43741 20.286 6.45499 19.2001C6.40768 18.4158 6.34513 17.6328 6.26181 16.8515C6.06042 14.9653 5.77576 13.0219 5.06603 11.2504C4.66699 10.2542 3.338 8.05126 2.15573 9.56527C0.314976 11.9224 3.09549 15.8477 4.45737 17.6515C4.91833 18.2625 5.40943 18.856 5.92207 19.432C6.06268 21.9165 6.03921 24.412 5.95709 26.8962C5.94539 27.2501 6.49552 27.2699 6.50724 26.9154C6.58274 24.6337 6.60365 22.3439 6.49917 20.0611C7.55761 21.1784 8.70983 22.2096 9.94621 23.1086C11.0762 23.9295 13.142 25.4248 14.6649 24.897C16.14 24.3855 15.3974 22.4582 14.7788 21.5729Z" fill="#1F1F2F" stroke="#1F1F2F" stroke-width="0.6"/>
<path d="M38.2915 18.2396C39.0249 18.444 39.5959 18.8137 40.0047 19.3487C40.4135 19.8837 40.6178 20.5479 40.6178 21.3414C40.6178 22.4595 40.2452 23.3221 39.4998 23.9292C38.7544 24.5364 37.7024 24.8399 36.3439 24.8399H31.0059V12H36.1635C37.474 12 38.4929 12.2915 39.2202 12.8746C39.9476 13.4577 40.3113 14.2843 40.3113 15.3543C40.3113 16.0395 40.1339 16.6316 39.7793 17.1306C39.4246 17.6295 38.9287 17.9992 38.2915 18.2396ZM32.4666 17.6986H35.9291C36.8909 17.6986 37.6182 17.5063 38.1112 17.1215C38.6041 16.7368 38.8506 16.1718 38.8506 15.4264C38.8506 13.9596 37.8767 13.2263 35.9291 13.2263H32.4666V17.6986ZM36.2176 23.6136C37.2275 23.6136 37.9699 23.4243 38.4448 23.0456C38.9197 22.6669 39.1571 22.0868 39.1571 21.3053C39.1571 19.7304 38.1773 18.9429 36.2176 18.9429H32.4666V23.6136H36.2176ZM57.876 24.8399H56.3071L54.7201 20.566C54.5278 20.037 54.2603 19.6823 53.9176 19.502C53.575 19.3216 53.0911 19.2315 52.4659 19.2315H49.256V24.8399H47.7952V12H52.8988C54.2813 12 55.3423 12.3066 56.0817 12.9197C56.8211 13.5329 57.1908 14.4165 57.1908 15.5707C57.1908 16.4122 56.9713 17.1185 56.5325 17.6896C56.0937 18.2607 55.4595 18.6664 54.63 18.9069C55.0027 18.967 55.3213 19.1263 55.5858 19.3848C55.8503 19.6432 56.0727 20.0129 56.253 20.4938L57.876 24.8399ZM52.7725 18.0052C54.7442 18.0052 55.73 17.1997 55.73 15.5887C55.73 14.7952 55.4896 14.2031 55.0087 13.8124C54.5278 13.4216 53.7824 13.2263 52.7725 13.2263H49.256V18.0052H52.7725ZM64.8009 24.8399V12H72.9161V13.2263H66.2617V17.6986H72.5554V18.9429H66.2617V23.6136H72.9161V24.8399H64.8009ZM88.8037 12H90.2103V24.8399H89.0562L81.3017 14.5067V24.8399H79.9131V12H81.0492L88.8037 22.3333V12ZM97.8746 12H102.185C104.24 12 105.83 12.556 106.955 13.6681C108.079 14.7802 108.641 16.3581 108.641 18.4019C108.641 20.4578 108.079 22.0447 106.955 23.1628C105.83 24.2809 104.24 24.8399 102.185 24.8399H97.8746V12ZM102.094 23.5776C103.754 23.5776 105.001 23.1448 105.836 22.2792C106.672 21.4135 107.09 20.1211 107.09 18.4019C107.09 14.9755 105.425 13.2624 102.094 13.2624H99.3534V23.5776H102.094ZM125.358 24.8399L123.951 21.5398H117.243L115.818 24.8399H114.285L119.93 12H121.228L126.873 24.8399H125.358ZM117.766 20.3135H123.428L120.597 13.7132L117.766 20.3135ZM151.669 12H153.148V24.8399H151.669V18.9429H143.969V24.8399H142.508V12H143.969V17.6986H151.669V12ZM165.843 24.9842C164.16 24.9842 162.889 24.5484 162.029 23.6768C161.17 22.8051 160.74 21.5157 160.74 19.8086V12H162.201V19.9348C162.201 21.1851 162.507 22.1289 163.12 22.7661C163.733 23.4033 164.641 23.7218 165.843 23.7218C167.034 23.7218 167.932 23.4033 168.539 22.7661C169.147 22.1289 169.45 21.1851 169.45 19.9348V12H170.929V19.8086C170.929 21.5037 170.496 22.7901 169.63 23.6677C168.765 24.5454 167.502 24.9842 165.843 24.9842Z" fill="#1F1F2F"/>
</svg>
