<?xml version="1.0" encoding="UTF-8"?>
<svg width="220px" height="36px" viewBox="0 0 220 36" version="1.1" xmlns="http://www.w3.org/2000/svg" xmlns:xlink="http://www.w3.org/1999/xlink">
    <!-- Generator: Sketch 57.1 (83088) - https://sketch.com -->
    <title>logo3 copy 2</title>
    <desc>Created with Sketch.</desc>
    <g id="Portfolio-2020" stroke="none" stroke-width="1" fill="none" fill-rule="evenodd">
        <g id="Desktop-HD-Copy-4" transform="translate(-93.000000, -41.000000)" fill="#1F1F2F">
            <g id="nav" transform="translate(93.000000, 41.000000)">
                <g id="logo3-copy">
                    <path d="M7.81489986,16.5844431 C5.47593999,13.7624148 2.98793077,10.3747421 2.26167651,6.69887979 C2.02096801,5.47964793 1.93921796,3.76496119 2.67414269,2.66174834 C4.29510588,0.230716436 6.39500878,4.87065131 6.84050528,6.0027657 C8.070472,9.12702154 8.67864286,12.5134556 9.13569998,15.8251585 C9.25708642,16.7041781 9.36154482,17.5856748 9.45774564,18.4679974 C8.89581724,17.8503303 8.34544946,17.2244057 7.81489986,16.5844431 M26.3659689,23.6000841 C23.3354366,19.5707974 18.1034332,18.0319971 13.2624262,17.9651107 C12.5981038,17.9556145 12.5976909,18.9878121 13.2624262,18.9973084 C17.5419176,19.0563501 22.0472539,20.2772334 25.0026423,23.5608606 C26.0497036,24.7239409 28.3841218,28.5034358 25.5026388,28.9815498 C22.6133111,29.4609024 18.9514868,26.6760331 16.8012126,25.1079184 C14.5927225,23.4972772 12.5246113,21.6690488 10.6125684,19.698377 C10.4726024,18.2318306 10.3041477,16.7685872 10.0968824,15.3098855 C9.59606013,11.78844 8.93545363,8.16542621 7.48955116,4.89212102 C6.6765923,3.05150617 4.04201101,-0.989754066 1.92559295,1.92475922 C-1.36959483,6.46230009 4.09774969,13.6360738 6.76783857,16.9271327 C7.67163083,18.0419062 8.63074889,19.1219978 9.62909045,20.1678205 C10.0551816,24.8143614 10.1745037,29.4922812 10.1831742,34.15286 C10.1844128,34.8167695 11.2166104,34.8180082 11.2153718,34.15286 C11.2075271,29.8721299 11.0968755,25.5798392 10.7517086,21.3090182 C12.8082592,23.3333642 15.034916,25.1904943 17.4106221,26.7941165 C19.5819531,28.2585986 23.5509595,30.9253844 26.3700977,29.8366223 C29.1008798,28.7817163 27.5831364,25.21857 26.3659689,23.6000841" id="logo3" stroke="#1F1F2F" stroke-width="0.5" transform="translate(14.400000, 17.775628) rotate(2.000000) translate(-14.400000, -17.775628) "></path>
                    <path d="M57.4272,18.1944 C58.3056044,18.4392012 58.9895976,18.8819968 59.4792,19.5228 C59.9688024,20.1636032 60.2136,20.9591952 60.2136,21.9096 C60.2136,23.2488067 59.7672045,24.2819964 58.8744,25.0092 C57.9815955,25.7364036 56.7216081,26.1 55.0944,26.1 L48.7008,26.1 L48.7008,10.7208 L54.8784,10.7208 C56.4480078,10.7208 57.6683956,11.0699965 58.5396,11.7684 C59.4108044,12.4668035 59.8464,13.4567936 59.8464,14.7384 C59.8464,15.5592041 59.6340021,16.268397 59.2092,16.866 C58.7843979,17.463603 58.1904038,17.9063986 57.4272,18.1944 Z M50.4504,17.5464 L54.5976,17.5464 C55.7496058,17.5464 56.620797,17.3160023 57.2112,16.8552 C57.801603,16.3943977 58.0968,15.7176045 58.0968,14.8248 C58.0968,13.0679912 56.9304117,12.1896 54.5976,12.1896 L50.4504,12.1896 L50.4504,17.5464 Z M54.9432,24.6312 C56.152806,24.6312 57.0419972,24.4044023 57.6108,23.9508 C58.1796028,23.4971977 58.464,22.8024047 58.464,21.8664 C58.464,19.9799906 57.2904117,19.0368 54.9432,19.0368 L50.4504,19.0368 L50.4504,24.6312 L54.9432,24.6312 Z M80.8848,26.1 L79.0056,26.1 L77.1048,20.9808 C76.8743988,20.3471968 76.5540021,19.9224011 76.1436,19.7064 C75.7331979,19.4903989 75.1536037,19.3824 74.4048,19.3824 L70.56,19.3824 L70.56,26.1 L68.8104,26.1 L68.8104,10.7208 L74.9232,10.7208 C76.5792083,10.7208 77.8499956,11.0879963 78.7356,11.8224 C79.6212044,12.5568037 80.064,13.6151931 80.064,14.9976 C80.064,16.005605 79.8012026,16.8515966 79.2756,17.5356 C78.7499974,18.2196034 77.990405,18.7055986 76.9968,18.9936 C77.4432022,19.0656004 77.8247984,19.2563985 78.1416,19.566 C78.4584016,19.8756015 78.7247989,20.3183971 78.9408,20.8944 L80.8848,26.1 Z M74.772,17.9136 C77.1336118,17.9136 78.3144,16.9488096 78.3144,15.0192 C78.3144,14.0687952 78.0264029,13.3596023 77.4504,12.8916 C76.8743971,12.4235977 75.981606,12.1896 74.772,12.1896 L70.56,12.1896 L70.56,17.9136 L74.772,17.9136 Z M89.1792,26.1 L89.1792,10.7208 L98.8992,10.7208 L98.8992,12.1896 L90.9288,12.1896 L90.9288,17.5464 L98.4672,17.5464 L98.4672,19.0368 L90.9288,19.0368 L90.9288,24.6312 L98.8992,24.6312 L98.8992,26.1 L89.1792,26.1 Z M117.9288,10.7208 L119.6136,10.7208 L119.6136,26.1 L118.2312,26.1 L108.9432,13.7232 L108.9432,26.1 L107.28,26.1 L107.28,10.7208 L108.6408,10.7208 L117.9288,23.0976 L117.9288,10.7208 Z M128.7936,10.7208 L133.956,10.7208 C136.418412,10.7208 138.322793,11.3867933 139.6692,12.7188 C141.015607,14.0508067 141.6888,15.9407878 141.6888,18.3888 C141.6888,20.8512123 141.015607,22.7519933 139.6692,24.0912 C138.322793,25.4304067 136.418412,26.1 133.956,26.1 L128.7936,26.1 L128.7936,10.7208 Z M133.848,24.588 C135.83521,24.588 137.329195,24.0696052 138.33,23.0328 C139.330805,21.9959948 139.8312,20.4480103 139.8312,18.3888 C139.8312,14.2847795 137.83682,12.2328 133.848,12.2328 L130.5648,12.2328 L130.5648,24.588 L133.848,24.588 Z M161.712,26.1 L160.0272,22.1472 L151.992,22.1472 L150.2856,26.1 L148.4496,26.1 L155.2104,10.7208 L156.7656,10.7208 L163.5264,26.1 L161.712,26.1 Z M152.6184,20.6784 L159.4008,20.6784 L156.0096,12.7728 L152.6184,20.6784 Z M193.2264,10.7208 L194.9976,10.7208 L194.9976,26.1 L193.2264,26.1 L193.2264,19.0368 L184.0032,19.0368 L184.0032,26.1 L182.2536,26.1 L182.2536,10.7208 L184.0032,10.7208 L184.0032,17.5464 L193.2264,17.5464 L193.2264,10.7208 Z M210.204,26.2728 C208.18799,26.2728 206.665205,25.7508052 205.6356,24.7068 C204.605995,23.6627948 204.0912,22.1184102 204.0912,20.0736 L204.0912,10.7208 L205.8408,10.7208 L205.8408,20.2248 C205.8408,21.7224075 206.207996,22.8527962 206.9424,23.616 C207.676804,24.3792038 208.763993,24.7608 210.204,24.7608 C211.629607,24.7608 212.705996,24.3792038 213.4332,23.616 C214.160404,22.8527962 214.524,21.7224075 214.524,20.2248 L214.524,10.7208 L216.2952,10.7208 L216.2952,20.0736 C216.2952,22.1040102 215.776805,23.6447947 214.74,24.696 C213.703195,25.7472053 212.19121,26.2728 210.204,26.2728 Z" id="BRENDAHU" fill-rule="nonzero"></path>
                </g>
            </g>
        </g>
    </g>
</svg>