<?xml version="1.0" encoding="UTF-8"?>
<svg width="804px" height="250px" viewBox="0 0 804 250" version="1.1" xmlns="http://www.w3.org/2000/svg" xmlns:xlink="http://www.w3.org/1999/xlink">
    <!-- Generator: Sketch 57.1 (83088) - https://sketch.com -->
    <title>design-process</title>
    <desc>Created with Sketch.</desc>
    <g id="design-process" stroke="none" stroke-width="1" fill="none" fill-rule="evenodd">
        <path d="M661.557355,74.1110022 C676.498789,56.0691216 698.64275,45.3805189 722.547277,45.3153681 L722.547945,45.2123288 L780.082192,45.2123288 L780.082192,40.4178082 L788.30137,45.8972603 L780.082192,51.3767123 L780.082192,46.5821918 L736.973877,46.5815983 C774.07514,53.2788392 802.219178,85.7362851 802.219178,124.767123 C802.219178,168.647281 766.647281,204.219178 722.767123,204.219178 C721.408286,204.219178 720.055081,204.184849 718.708505,204.11679 L665.39726,204.116438 L665.39726,208.910959 L657.178082,203.431507 L665.39726,197.952055 L665.39726,202.746575 L707.482628,202.746986 C689.458041,199.231859 673.246138,189.569592 661.498869,175.355472 C644.001156,205.626169 612.082337,224.998298 576.616629,226.012894 L576.616438,226.034247 L575.685848,226.035286 C575.020064,226.048275 574.353068,226.054795 573.684932,226.054795 C573.006045,226.054795 572.328314,226.048067 571.651815,226.034662 L491.684932,226.034247 L491.684932,230.828767 L483.465753,225.349315 L491.684932,219.869863 L491.684932,224.664384 L556.89424,224.665093 C528.608426,219.938937 503.66843,203.421411 488.183734,179.163928 C469.698523,208.125708 437.732127,226.054795 402.684932,226.054795 C402.01503,226.054795 401.346261,226.048243 400.678698,226.035188 L318.452055,226.034247 L318.452055,230.828767 L310.232877,225.349315 L318.452055,219.869863 L318.452055,224.664384 L385.89488,224.66499 C357.097507,219.852914 331.781166,202.82054 316.382079,177.887585 C298.053131,207.569263 265.665908,226.054795 230.082192,226.054795 C229.412664,226.054795 228.744283,226.048248 228.077121,226.035205 L144.986301,226.034247 L144.986301,230.828767 L136.767123,225.349315 L144.986301,219.869863 L144.986301,224.664384 L213.299516,224.665822 C183.415489,219.673145 157.308143,201.523551 142.142172,175.141482 C127.156046,193.356421 104.84664,204.136986 80.7671233,204.136986 C36.8869651,204.136986 1.31506849,168.56509 1.31506849,124.684932 C1.31506849,80.8047733 36.8869651,45.2328767 80.7671233,45.2328767 L81.0820685,45.234 L81.0821918,45.2123288 L138.616438,45.2123288 L138.616438,40.4178082 L146.835616,45.8972603 L138.616438,51.3767123 L138.616438,46.5821918 L95.4049043,46.5817615 C113.745675,50.0007916 130.250213,59.7737476 142.144485,74.2288631 C159.814422,43.4857829 192.345425,23.9211016 228.397102,23.3289025 L228.39726,23.2945205 L313.328767,23.2945205 L313.328767,18.5 L321.547945,23.9794521 L313.328767,29.4589041 L313.328767,24.6643836 L246.624524,24.6637949 C275.524402,29.4193715 300.941818,46.4778556 316.385044,71.4822785 C334.183282,42.660027 365.23747,24.3949449 399.602276,23.3613853 L399.60274,23.2945205 L484.534247,23.2945205 L484.534247,18.5 L492.753425,23.9794521 L484.534247,29.4589041 L484.534247,24.6643836 L419.234268,24.6647427 C447.619538,29.3370601 472.657406,45.8794809 488.186129,70.2059347 C506.521874,41.4783319 538.121675,23.6057287 572.835396,23.3185814 L572.835616,23.2945205 L657.767123,23.2945205 L657.767123,18.5 L665.986301,23.9794521 L657.767123,29.4589041 L657.767123,24.6643836 L590.220859,24.6631134 C620.161788,29.5892498 646.337986,47.7178561 661.557355,74.1110022 Z M573.684932,24.6849315 C538.745399,24.6849315 506.911275,42.7468008 488.767409,71.8519862 L488.186208,72.7843097 L487.604949,71.8520225 C469.458329,42.7464676 437.62412,24.6849315 402.684932,24.6849315 C367.203705,24.6849315 334.945556,43.3146461 316.971792,73.1509639 L316.385145,74.1247947 L315.798422,73.151009 C297.821254,43.3142293 265.562991,24.6849315 230.082192,24.6849315 C193.519787,24.6849315 160.42477,44.4739922 142.842,75.7740698 L142.345205,76.658442 L141.710539,75.8671656 C126.978481,57.4998177 104.768734,46.6027397 80.7671233,46.6027397 C37.6435195,46.6027397 2.68493151,81.5613278 2.68493151,124.684932 C2.68493151,167.808535 37.6435195,202.767123 80.7671233,202.767123 C104.768878,202.767123 126.978554,191.869907 141.708113,173.503217 L142.342721,172.711908 L142.839577,173.596233 C160.103139,204.322629 192.31198,223.955367 228.074533,224.665023 L229.917808,224.664384 L229.917087,224.684797 C229.972114,224.684887 230.027149,224.684932 230.082192,224.684932 C265.563418,224.684932 297.821567,206.055217 315.795331,176.218899 L316.381979,175.245068 L316.968701,176.218854 C334.607486,205.494017 365.994799,223.979643 400.684868,224.66518 L403.383562,224.664384 L403.383068,224.681 L403.732175,224.67952 C438.259777,224.32259 469.640027,206.33201 487.602454,177.517877 L488.183655,176.585553 L488.764914,177.517841 C506.559888,206.059388 537.517117,223.980792 571.657353,224.664636 L575.687237,224.665129 C611.363734,223.959093 643.507103,204.42139 660.802725,173.812864 L661.299208,172.934224 L661.932392,173.720087 C675.840491,190.981824 696.36321,201.609263 718.755057,202.74752 L722.931507,202.746575 L722.931068,202.848 L724.058355,202.838854 C766.586403,202.149327 800.849315,167.459491 800.849315,124.767123 C800.849315,81.6435195 765.890727,46.6849315 722.767123,46.6849315 C698.856397,46.6849315 676.722034,57.499096 661.989203,75.7468566 L661.355199,76.5321203 L660.859615,75.652918 C643.254169,44.4195734 610.197274,24.6849315 573.684932,24.6849315 Z" id="Combined-Shape" fill="#47476C" fill-rule="nonzero"></path>
        <path d="M660.379357,161.68944 C646.134335,195.368454 612.785793,219 573.917808,219 C535.797007,219 502.985482,196.26829 488.298866,163.620504 C473.617258,196.26829 440.805732,219 402.684932,219 C363.959829,219 330.713665,195.541879 316.381255,162.060455 C302.053458,195.541879 268.807294,219 230.082192,219 C190.871141,219 157.277398,194.949449 143.247919,160.795305 C130.864591,182.472344 107.522014,197.082192 80.7671233,197.082192 C41.0480146,197.082192 8.84931507,164.883492 8.84931507,125.164384 C8.84931507,85.4452748 41.0480146,53.2465753 80.7671233,53.2465753 C107.521866,53.2465753 130.864333,67.8562615 143.251963,89.5330717 C157.277832,55.379007 190.871395,31.3287671 230.082192,31.3287671 C268.807294,31.3287671 302.053458,54.7868879 316.385868,88.2683122 C330.713665,54.7868879 363.959829,31.3287671 402.684932,31.3287671 C440.805732,31.3287671 473.617258,54.0604769 488.303874,86.7082627 C502.985482,54.0604769 535.797007,31.3287671 573.917808,31.3287671 C613.128605,31.3287671 646.722168,55.379007 660.751808,89.5327997 C673.135667,67.8562615 696.478134,53.2465753 723.232877,53.2465753 C762.951985,53.2465753 795.150685,85.4452748 795.150685,125.164384 C795.150685,164.883492 762.951985,197.082192 723.232877,197.082192 C696.478398,197.082192 673.136126,182.472793 660.748403,160.796335 Z" id="fill" fill="#47476C" opacity="0.08"></path>
        <g id="dotted" transform="translate(129.000000, 72.000000)" stroke="#47476C" stroke-dasharray="2,4" stroke-width="1.36986301">
            <path d="M186.987672,1.12294764 C196.117797,16.2761476 201.369863,34.0300398 201.369863,53.0106178 C201.369863,71.9910838 196.117859,89.7448786 186.987833,104.89802 C177.854744,89.7448786 172.60274,71.9910838 172.60274,53.0106178 C172.60274,34.104322 177.813777,16.4151293 186.877915,1.30097736 Z" id="Combined-Shape"></path>
            <path d="M532.360203,3.76364613 C540.540301,18.3228525 545.205479,35.1219297 545.205479,53.0106178 C545.205479,70.8993059 540.540301,87.6983831 532.360203,102.257589 C521.540181,88.7702743 515.068493,71.6462179 515.068493,53.0106178 C515.068493,34.7398278 521.289282,17.9219808 531.728364,4.55957213 Z" id="Combined-Shape"></path>
            <path d="M358.903767,-3.57047725e-13 C368.456716,15.3960187 373.972603,33.559166 373.972603,53.0106178 C373.972603,72.462086 368.456707,90.6252476 358.903742,106.021275 C349.351513,90.6252476 343.835616,72.462086 343.835616,53.0106178 C343.835616,34.104322 349.046654,16.4151293 358.110791,1.30097736 Z" id="Combined-Shape"></path>
            <path d="M12.8467793,3.76330533 C23.6652984,17.2509613 30.1369863,34.3750177 30.1369863,53.0106178 C30.1369863,71.6462179 23.6652984,88.7702743 12.8467793,102.25793 C4.66517875,87.6983831 -9.96536187e-13,70.8993059 -9.96536187e-13,53.0106178 C-9.96536187e-13,35.2164571 4.61600556,18.5004222 12.7158952,3.99463478 Z" id="Combined-Shape"></path>
        </g>
        <path d="M55.2164384,131.890411 L53.4246575,131.890411 L51.9616438,127.994521 C51.8082184,127.57808 51.5835631,127.290412 51.2876712,127.131507 C50.9917793,126.972602 50.5863039,126.893151 50.0712329,126.893151 L47.5068493,126.893151 L47.5068493,131.890411 L45.830137,131.890411 L45.830137,120.186301 L50.6465753,120.186301 C51.9287735,120.186301 52.9123253,120.47123 53.5972603,121.041096 C54.2821952,121.610962 54.6246575,122.427392 54.6246575,123.490411 C54.6246575,124.257538 54.4219198,124.909586 54.0164384,125.446575 C53.6109569,125.983564 53.0356202,126.361643 52.290411,126.580822 C52.9698664,126.70137 53.4630122,127.183557 53.769863,128.027397 L55.2164384,131.890411 Z M50.4493151,125.528767 C51.3041139,125.528767 51.9397239,125.361646 52.3561644,125.027397 C52.7726048,124.693149 52.9808219,124.191784 52.9808219,123.523288 C52.9808219,122.854791 52.7753445,122.358906 52.3643836,122.035616 C51.9534226,121.712327 51.3150728,121.550685 50.4493151,121.550685 L47.5068493,121.550685 L47.5068493,125.528767 L50.4493151,125.528767 Z M64.2082192,127.780822 L58.290411,127.780822 C58.3452058,129.720558 59.2273887,130.690411 60.9369863,130.690411 C61.8904157,130.690411 62.7616399,130.378085 63.5506849,129.753425 L64.060274,130.936986 C63.6876694,131.265755 63.2137015,131.526026 62.6383562,131.717808 C62.0630108,131.90959 61.4849344,132.005479 60.9041096,132.005479 C59.5780756,132.005479 58.5369901,131.624661 57.7808219,130.863014 C57.0246538,130.101366 56.6465753,129.057541 56.6465753,127.731507 C56.6465753,126.887667 56.813697,126.13699 57.1479452,125.479452 C57.4821935,124.821915 57.9506819,124.312331 58.5534247,123.950685 C59.1561674,123.589039 59.8410921,123.408219 60.6082192,123.408219 C61.726033,123.408219 62.6054762,123.769859 63.2465753,124.493151 C63.8876744,125.216442 64.2082192,126.219172 64.2082192,127.50137 L64.2082192,127.780822 Z M60.6410959,124.641096 C60.0164352,124.641096 59.5068513,124.827395 59.1123288,125.2 C58.7178062,125.572605 58.465754,126.104106 58.3561644,126.794521 L62.7452055,126.794521 C62.6794517,126.093147 62.4657552,125.558906 62.1041096,125.191781 C61.7424639,124.824656 61.2547976,124.641096 60.6410959,124.641096 Z M69.0082192,132.005479 C67.5616366,132.005479 66.421922,131.654798 65.5890411,130.953425 L66.0821918,129.753425 C66.9479495,130.410962 67.9397204,130.739726 69.0575342,130.739726 C69.6274001,130.739726 70.0602725,130.643837 70.3561644,130.452055 C70.6520563,130.260273 70.8,129.989043 70.8,129.638356 C70.8,129.342464 70.6986312,129.10959 70.4958904,128.939726 C70.2931497,128.769862 69.9506873,128.624658 69.4684932,128.50411 L68.0876712,128.175342 C67.3643799,128.021917 66.8137005,127.750687 66.4356164,127.361644 C66.0575324,126.972601 65.8684932,126.487674 65.8684932,125.906849 C65.8684932,125.16164 66.1671203,124.558906 66.7643836,124.09863 C67.3616468,123.638354 68.1534197,123.408219 69.139726,123.408219 C69.7315098,123.408219 70.293148,123.501369 70.8246575,123.687671 C71.356167,123.873974 71.8082173,124.136985 72.1808219,124.476712 L71.6712329,125.643836 C70.8712289,125.008216 70.0274017,124.690411 69.139726,124.690411 C68.602737,124.690411 68.1863028,124.79178 67.890411,124.994521 C67.5945191,125.197261 67.4465753,125.47945 67.4465753,125.841096 C67.4465753,126.126029 67.5397251,126.356164 67.7260274,126.531507 C67.9123297,126.70685 68.2082172,126.843835 68.6136986,126.942466 L70.0273973,127.287671 C70.8164423,127.463015 71.3999981,127.739724 71.7780822,128.117808 C72.1561663,128.495892 72.3452055,128.986298 72.3452055,129.589041 C72.3452055,130.33425 72.0465783,130.923286 71.4493151,131.356164 C70.8520518,131.789043 70.0383613,132.005479 69.0082192,132.005479 Z M81.369863,127.780822 L75.4520548,127.780822 C75.5068496,129.720558 76.3890325,130.690411 78.0986301,130.690411 C79.0520596,130.690411 79.9232837,130.378085 80.7123288,129.753425 L81.2219178,130.936986 C80.8493132,131.265755 80.3753453,131.526026 79.8,131.717808 C79.2246547,131.90959 78.6465782,132.005479 78.0657534,132.005479 C76.7397194,132.005479 75.6986339,131.624661 74.9424658,130.863014 C74.1862976,130.101366 73.8082192,129.057541 73.8082192,127.731507 C73.8082192,126.887667 73.9753408,126.13699 74.309589,125.479452 C74.6438373,124.821915 75.1123258,124.312331 75.7150685,123.950685 C76.3178112,123.589039 77.0027359,123.408219 77.769863,123.408219 C78.8876768,123.408219 79.7671201,123.769859 80.4082192,124.493151 C81.0493183,125.216442 81.369863,126.219172 81.369863,127.50137 L81.369863,127.780822 Z M77.8027397,124.641096 C77.1780791,124.641096 76.6684951,124.827395 76.2739726,125.2 C75.8794501,125.572605 75.6273978,126.104106 75.5178082,126.794521 L79.9068493,126.794521 C79.8410956,126.093147 79.6273991,125.558906 79.2657534,125.191781 C78.9041078,124.824656 78.4164414,124.641096 77.8027397,124.641096 Z M90.8547945,123.605479 L90.8547945,131.890411 L89.2109589,131.890411 L89.2109589,130.476712 C88.9698618,130.969865 88.6109613,131.347944 88.1342466,131.610959 C87.6575319,131.873974 87.101373,132.005479 86.4657534,132.005479 C85.7315032,132.005479 85.087674,131.830139 84.5342466,131.479452 C83.9808192,131.128765 83.5506865,130.63288 83.2438356,129.991781 C82.9369848,129.350682 82.7835616,128.602744 82.7835616,127.747945 C82.7835616,126.893146 82.9397245,126.13699 83.2520548,125.479452 C83.5643851,124.821915 83.9999972,124.312331 84.5589041,123.950685 C85.117811,123.589039 85.7534211,123.408219 86.4657534,123.408219 C87.101373,123.408219 87.6547922,123.542464 88.1260274,123.810959 C88.5972626,124.079453 88.9589028,124.460272 89.2109589,124.953425 L89.2109589,123.605479 L90.8547945,123.605479 Z M86.860274,130.690411 C87.6054832,130.690411 88.1835596,130.43014 88.5945205,129.909589 C89.0054815,129.389038 89.2109589,128.657539 89.2109589,127.715068 C89.2109589,126.761639 89.0054815,126.0274 88.5945205,125.512329 C88.1835596,124.997258 87.6000038,124.739726 86.8438356,124.739726 C86.0986264,124.739726 85.5150706,125.005477 85.0931507,125.536986 C84.6712308,126.068496 84.460274,126.805475 84.460274,127.747945 C84.460274,128.679457 84.6712308,129.402737 85.0931507,129.917808 C85.5150706,130.432879 86.1041058,130.690411 86.860274,130.690411 Z M97.4136986,123.408219 C97.6657547,123.408219 97.9287658,123.446575 98.2027397,123.523288 L98.169863,125.035616 C97.8739711,124.926027 97.5506867,124.871233 97.2,124.871233 C96.4438318,124.871233 95.8767142,125.098628 95.4986301,125.553425 C95.1205461,126.008221 94.9315068,126.580818 94.9315068,127.271233 L94.9315068,131.890411 L93.2876712,131.890411 L93.2876712,125.939726 C93.2876712,125.073968 93.2438361,124.295894 93.1561644,123.605479 L94.7013699,123.605479 L94.8493151,125.10137 C95.0684942,124.553422 95.4082169,124.134248 95.8684932,123.843836 C96.3287694,123.553423 96.8438328,123.408219 97.4136986,123.408219 Z M103.068493,132.005479 C102.235612,132.005479 101.509592,131.830139 100.890411,131.479452 C100.27123,131.128765 99.7972619,130.63288 99.4684932,129.991781 C99.1397244,129.350682 98.9753425,128.602744 98.9753425,127.747945 C98.9753425,126.893146 99.1479435,126.13699 99.4931507,125.479452 C99.8383579,124.821915 100.323285,124.312331 100.947945,123.950685 C101.572606,123.589039 102.301366,123.408219 103.134247,123.408219 C103.715071,123.408219 104.27397,123.504109 104.810959,123.69589 C105.347948,123.887672 105.78082,124.147944 106.109589,124.476712 L105.6,125.676712 C104.821914,125.063011 104.03836,124.756164 103.249315,124.756164 C102.449311,124.756164 101.82466,125.016436 101.375342,125.536986 C100.926025,126.057537 100.70137,126.789036 100.70137,127.731507 C100.70137,128.673977 100.926025,129.399997 101.375342,129.909589 C101.82466,130.419181 102.449311,130.673973 103.249315,130.673973 C104.060278,130.673973 104.843832,130.367126 105.6,129.753425 L106.109589,130.953425 C105.758902,131.282193 105.312331,131.539725 104.769863,131.726027 C104.227395,131.91233 103.660277,132.005479 103.068493,132.005479 Z M112.076712,123.408219 C114.060284,123.408219 115.052055,124.515057 115.052055,126.728767 L115.052055,131.890411 L113.391781,131.890411 L113.391781,126.827397 C113.391781,126.104106 113.252056,125.578084 112.972603,125.249315 C112.693149,124.920546 112.246578,124.756164 111.632877,124.756164 C110.931503,124.756164 110.369865,124.97534 109.947945,125.413699 C109.526025,125.852057 109.315068,126.438352 109.315068,127.172603 L109.315068,131.890411 L107.671233,131.890411 L107.671233,119.791781 L109.315068,119.791781 L109.315068,124.887671 C109.589042,124.405477 109.967121,124.038357 110.449315,123.786301 C110.931509,123.534245 111.47397,123.408219 112.076712,123.408219 Z" id="Research" fill="#12121C" fill-rule="nonzero"></path>
        <path d="M207.473973,131.890411 L207.473973,120.186301 L209.167123,120.186301 L209.167123,131.890411 L207.473973,131.890411 Z M219.326027,119.791781 L219.326027,131.890411 L217.682192,131.890411 L217.682192,130.476712 C217.441095,130.969865 217.082194,131.347944 216.605479,131.610959 C216.128765,131.873974 215.572606,132.005479 214.936986,132.005479 C214.224654,132.005479 213.589044,131.824659 213.030137,131.463014 C212.47123,131.101368 212.035618,130.594524 211.723288,129.942466 C211.410957,129.290408 211.254795,128.536991 211.254795,127.682192 C211.254795,126.827393 211.408218,126.076716 211.715068,125.430137 C212.021919,124.783558 212.452052,124.284933 213.005479,123.934247 C213.558907,123.58356 214.202736,123.408219 214.936986,123.408219 C215.561647,123.408219 216.112326,123.539725 216.589041,123.80274 C217.065756,124.065755 217.424656,124.438354 217.665753,124.920548 L217.665753,119.791781 L219.326027,119.791781 Z M215.315068,130.690411 C216.071237,130.690411 216.654792,130.43014 217.065753,129.909589 C217.476714,129.389038 217.682192,128.657539 217.682192,127.715068 C217.682192,126.772598 217.476714,126.041098 217.065753,125.520548 C216.654792,124.999997 216.076716,124.739726 215.331507,124.739726 C214.575339,124.739726 213.986303,124.997258 213.564384,125.512329 C213.142464,126.0274 212.931507,126.75068 212.931507,127.682192 C212.931507,128.624662 213.142464,129.361641 213.564384,129.893151 C213.986303,130.42466 214.569859,130.690411 215.315068,130.690411 Z M228.827397,127.780822 L222.909589,127.780822 C222.964384,129.720558 223.846567,130.690411 225.556164,130.690411 C226.509594,130.690411 227.380818,130.378085 228.169863,129.753425 L228.679452,130.936986 C228.306847,131.265755 227.83288,131.526026 227.257534,131.717808 C226.682189,131.90959 226.104112,132.005479 225.523288,132.005479 C224.197254,132.005479 223.156168,131.624661 222.4,130.863014 C221.643832,130.101366 221.265753,129.057541 221.265753,127.731507 C221.265753,126.887667 221.432875,126.13699 221.767123,125.479452 C222.101372,124.821915 222.56986,124.312331 223.172603,123.950685 C223.775345,123.589039 224.46027,123.408219 225.227397,123.408219 C226.345211,123.408219 227.224654,123.769859 227.865753,124.493151 C228.506853,125.216442 228.827397,126.219172 228.827397,127.50137 L228.827397,127.780822 Z M225.260274,124.641096 C224.635613,124.641096 224.126029,124.827395 223.731507,125.2 C223.336984,125.572605 223.084932,126.104106 222.975342,126.794521 L227.364384,126.794521 C227.29863,126.093147 227.084933,125.558906 226.723288,125.191781 C226.361642,124.824656 225.873976,124.641096 225.260274,124.641096 Z M238.312329,123.605479 L238.312329,131.890411 L236.668493,131.890411 L236.668493,130.476712 C236.427396,130.969865 236.068496,131.347944 235.591781,131.610959 C235.115066,131.873974 234.558907,132.005479 233.923288,132.005479 C233.189037,132.005479 232.545208,131.830139 231.991781,131.479452 C231.438353,131.128765 231.008221,130.63288 230.70137,129.991781 C230.394519,129.350682 230.241096,128.602744 230.241096,127.747945 C230.241096,126.893146 230.397259,126.13699 230.709589,125.479452 C231.021919,124.821915 231.457531,124.312331 232.016438,123.950685 C232.575345,123.589039 233.210955,123.408219 233.923288,123.408219 C234.558907,123.408219 235.112326,123.542464 235.583562,123.810959 C236.054797,124.079453 236.416437,124.460272 236.668493,124.953425 L236.668493,123.605479 L238.312329,123.605479 Z M234.317808,130.690411 C235.063017,130.690411 235.641094,130.43014 236.052055,129.909589 C236.463016,129.389038 236.668493,128.657539 236.668493,127.715068 C236.668493,126.761639 236.463016,126.0274 236.052055,125.512329 C235.641094,124.997258 235.057538,124.739726 234.30137,124.739726 C233.556161,124.739726 232.972605,125.005477 232.550685,125.536986 C232.128765,126.068496 231.917808,126.805475 231.917808,127.747945 C231.917808,128.679457 232.128765,129.402737 232.550685,129.917808 C232.972605,130.432879 233.56164,130.690411 234.317808,130.690411 Z M242.89863,124.887671 L242.89863,129.046575 C242.89863,129.616441 243.021917,130.019177 243.268493,130.254795 C243.51507,130.490412 243.857532,130.608219 244.29589,130.608219 C244.580823,130.608219 244.871231,130.564384 245.167123,130.476712 L245.167123,131.824658 C244.805478,131.945206 244.394523,132.005479 243.934247,132.005479 C243.079448,132.005479 242.416441,131.764386 241.945205,131.282192 C241.47397,130.799998 241.238356,130.098635 241.238356,129.178082 L241.238356,124.887671 L239.627397,124.887671 L239.627397,123.605479 L241.238356,123.605479 L241.238356,121.534247 L242.89863,120.958904 L242.89863,123.605479 L245.183562,123.605479 L245.183562,124.887671 L242.89863,124.887671 Z M253.780822,127.780822 L247.863014,127.780822 C247.917808,129.720558 248.799991,130.690411 250.509589,130.690411 C251.463018,130.690411 252.334243,130.378085 253.123288,129.753425 L253.632877,130.936986 C253.260272,131.265755 252.786304,131.526026 252.210959,131.717808 C251.635614,131.90959 251.057537,132.005479 250.476712,132.005479 C249.150678,132.005479 248.109593,131.624661 247.353425,130.863014 C246.597256,130.101366 246.219178,129.057541 246.219178,127.731507 C246.219178,126.887667 246.3863,126.13699 246.720548,125.479452 C247.054796,124.821915 247.523285,124.312331 248.126027,123.950685 C248.72877,123.589039 249.413695,123.408219 250.180822,123.408219 C251.298636,123.408219 252.178079,123.769859 252.819178,124.493151 C253.460277,125.216442 253.780822,126.219172 253.780822,127.50137 L253.780822,127.780822 Z M250.213699,124.641096 C249.589038,124.641096 249.079454,124.827395 248.684932,125.2 C248.290409,125.572605 248.038357,126.104106 247.928767,126.794521 L252.317808,126.794521 C252.252054,126.093147 252.038358,125.558906 251.676712,125.191781 C251.315067,124.824656 250.8274,124.641096 250.213699,124.641096 Z" id="Ideate" fill="#12121C" fill-rule="nonzero"></path>
        <path d="M377.643836,99.2958904 L381.736986,99.2958904 C383.632886,99.2958904 385.101365,99.8054744 386.142466,100.824658 C387.183567,101.843841 387.70411,103.279443 387.70411,105.131507 C387.70411,106.99453 387.183567,108.438351 386.142466,109.463014 C385.101365,110.487676 383.632886,111 381.736986,111 L377.643836,111 L377.643836,99.2958904 Z M381.638356,109.586301 C384.520562,109.586301 385.961644,108.101385 385.961644,105.131507 C385.961644,102.183547 384.520562,100.709589 381.638356,100.709589 L379.336986,100.709589 L379.336986,109.586301 L381.638356,109.586301 Z M396.942466,106.890411 L391.024658,106.890411 C391.079452,108.830147 391.961635,109.8 393.671233,109.8 C394.624662,109.8 395.495886,109.487674 396.284932,108.863014 L396.794521,110.046575 C396.421916,110.375344 395.947948,110.635615 395.372603,110.827397 C394.797257,111.019179 394.219181,111.115068 393.638356,111.115068 C392.312322,111.115068 391.271237,110.73425 390.515068,109.972603 C389.7589,109.210955 389.380822,108.16713 389.380822,106.841096 C389.380822,105.997256 389.547944,105.246579 389.882192,104.589041 C390.21644,103.931504 390.684928,103.42192 391.287671,103.060274 C391.890414,102.698628 392.575339,102.517808 393.342466,102.517808 C394.46028,102.517808 395.339723,102.879448 395.980822,103.60274 C396.621921,104.326031 396.942466,105.328761 396.942466,106.610959 L396.942466,106.890411 Z M393.375342,103.750685 C392.750682,103.750685 392.241098,103.936984 391.846575,104.309589 C391.452053,104.682194 391.200001,105.213695 391.090411,105.90411 L395.479452,105.90411 C395.413698,105.202736 395.200002,104.668495 394.838356,104.30137 C394.476711,103.934245 393.989044,103.750685 393.375342,103.750685 Z M401.742466,111.115068 C400.295883,111.115068 399.156169,110.764387 398.323288,110.063014 L398.816438,108.863014 C399.682196,109.520551 400.673967,109.849315 401.791781,109.849315 C402.361647,109.849315 402.794519,109.753426 403.090411,109.561644 C403.386303,109.369862 403.534247,109.098632 403.534247,108.747945 C403.534247,108.452053 403.432878,108.219179 403.230137,108.049315 C403.027396,107.879451 402.684934,107.734247 402.20274,107.613699 L400.821918,107.284932 C400.098627,107.131506 399.547947,106.860276 399.169863,106.471233 C398.791779,106.08219 398.60274,105.597263 398.60274,105.016438 C398.60274,104.271229 398.901367,103.668495 399.49863,103.208219 C400.095893,102.747943 400.887666,102.517808 401.873973,102.517808 C402.465756,102.517808 403.027395,102.610958 403.558904,102.79726 C404.090414,102.983563 404.542464,103.246574 404.915068,103.586301 L404.405479,104.753425 C403.605475,104.117805 402.761648,103.8 401.873973,103.8 C401.336984,103.8 400.920549,103.901369 400.624658,104.10411 C400.328766,104.30685 400.180822,104.589039 400.180822,104.950685 C400.180822,105.235618 400.273972,105.465753 400.460274,105.641096 C400.646576,105.816439 400.942464,105.953424 401.347945,106.052055 L402.761644,106.39726 C403.550689,106.572604 404.134245,106.849313 404.512329,107.227397 C404.890413,107.605481 405.079452,108.095887 405.079452,108.69863 C405.079452,109.443839 404.780825,110.032875 404.183562,110.465753 C403.586298,110.898632 402.772608,111.115068 401.742466,111.115068 Z M407.035616,111 L407.035616,102.715068 L408.679452,102.715068 L408.679452,111 L407.035616,111 Z M406.887671,99.0986301 L408.810959,99.0986301 L408.810959,100.841096 L406.887671,100.841096 L406.887671,99.0986301 Z M418.756164,102.715068 L418.756164,110.852055 C418.756164,112.112335 418.424661,113.06301 417.761644,113.70411 C417.098627,114.345209 416.115075,114.665753 414.810959,114.665753 C413.550679,114.665753 412.44932,114.391784 411.506849,113.843836 L411.786301,112.545205 C412.301372,112.819179 412.797258,113.021917 413.273973,113.153425 C413.750687,113.284932 414.257532,113.350685 414.794521,113.350685 C416.339734,113.350685 417.112329,112.561652 417.112329,110.983562 L417.112329,109.191781 C416.860273,109.673975 416.493153,110.054793 416.010959,110.334247 C415.528765,110.6137 414.969866,110.753425 414.334247,110.753425 C413.610955,110.753425 412.967126,110.583563 412.40274,110.243836 C411.838353,109.904108 411.400002,109.421921 411.087671,108.79726 C410.775341,108.1726 410.619178,107.454799 410.619178,106.643836 C410.619178,105.832873 410.775341,105.115072 411.087671,104.490411 C411.400002,103.86575 411.838353,103.380824 412.40274,103.035616 C412.967126,102.690409 413.610955,102.517808 414.334247,102.517808 C414.969866,102.517808 415.528765,102.652053 416.010959,102.920548 C416.493153,103.189042 416.860273,103.569861 417.112329,104.063014 L417.112329,102.715068 L418.756164,102.715068 Z M414.712329,109.421918 C415.457538,109.421918 416.043833,109.175345 416.471233,108.682192 C416.898632,108.189039 417.112329,107.509593 417.112329,106.643836 C417.112329,105.778078 416.901372,105.095893 416.479452,104.59726 C416.057532,104.098628 415.468497,103.849315 414.712329,103.849315 C413.96712,103.849315 413.378084,104.098628 412.945205,104.59726 C412.512327,105.095893 412.29589,105.778078 412.29589,106.643836 C412.29589,107.498634 412.512327,108.17534 412.945205,108.673973 C413.378084,109.172605 413.96712,109.421918 414.712329,109.421918 Z M425.594521,102.517808 C427.578092,102.517808 428.569863,103.624646 428.569863,105.838356 L428.569863,111 L426.909589,111 L426.909589,105.936986 C426.909589,105.213695 426.769864,104.687673 426.490411,104.358904 C426.210958,104.030135 425.764387,103.865753 425.150685,103.865753 C424.449312,103.865753 423.887673,104.084929 423.465753,104.523288 C423.043834,104.961646 422.832877,105.547942 422.832877,106.282192 L422.832877,111 L421.189041,111 L421.189041,105.049315 C421.189041,104.183557 421.145206,103.405483 421.057534,102.715068 L422.60274,102.715068 L422.750685,104.145205 C423.0137,103.619175 423.394518,103.21644 423.893151,102.936986 C424.391783,102.657533 424.958901,102.517808 425.594521,102.517808 Z M407.043836,126.657534 L407.043836,127.873973 L403.608219,127.873973 L403.608219,131.326027 L402.391781,131.326027 L402.391781,127.873973 L398.956164,127.873973 L398.956164,126.657534 L402.391781,126.657534 L402.391781,123.221918 L403.608219,123.221918 L403.608219,126.657534 L407.043836,126.657534 Z M366.449315,141.29589 L371.315068,141.29589 C372.542472,141.29589 373.498627,141.594518 374.183562,142.191781 C374.868497,142.789044 375.210959,143.602735 375.210959,144.632877 C375.210959,145.663019 374.863017,146.476709 374.167123,147.073973 C373.471229,147.671236 372.520554,147.969863 371.315068,147.969863 L368.142466,147.969863 L368.142466,153 L366.449315,153 L366.449315,141.29589 Z M371.117808,146.621918 C371.928771,146.621918 372.539724,146.452056 372.950685,146.112329 C373.361646,145.772601 373.567123,145.279455 373.567123,144.632877 C373.567123,143.997257 373.361646,143.509591 372.950685,143.169863 C372.539724,142.830135 371.928771,142.660274 371.117808,142.660274 L368.142466,142.660274 L368.142466,146.621918 L371.117808,146.621918 Z M381.243836,144.517808 C381.495892,144.517808 381.758903,144.556164 382.032877,144.632877 L382,146.145205 C381.704108,146.035616 381.380824,145.980822 381.030137,145.980822 C380.273969,145.980822 379.706851,146.208217 379.328767,146.663014 C378.950683,147.11781 378.761644,147.690408 378.761644,148.380822 L378.761644,153 L377.117808,153 L377.117808,147.049315 C377.117808,146.183557 377.073973,145.405483 376.986301,144.715068 L378.531507,144.715068 L378.679452,146.210959 C378.898631,145.663011 379.238354,145.243837 379.69863,144.953425 C380.158906,144.663012 380.67397,144.517808 381.243836,144.517808 Z M386.865753,153.115068 C386.05479,153.115068 385.342469,152.939728 384.728767,152.589041 C384.115065,152.238354 383.641098,151.739729 383.306849,151.093151 C382.972601,150.446572 382.805479,149.690415 382.805479,148.824658 C382.805479,147.9589 382.972601,147.200003 383.306849,146.547945 C383.641098,145.895887 384.115065,145.394522 384.728767,145.043836 C385.342469,144.693149 386.05479,144.517808 386.865753,144.517808 C387.665757,144.517808 388.3726,144.693149 388.986301,145.043836 C389.600003,145.394522 390.073971,145.895887 390.408219,146.547945 C390.742467,147.200003 390.909589,147.9589 390.909589,148.824658 C390.909589,149.690415 390.742467,150.446572 390.408219,151.093151 C390.073971,151.739729 389.600003,152.238354 388.986301,152.589041 C388.3726,152.939728 387.665757,153.115068 386.865753,153.115068 Z M386.849315,151.8 C387.616442,151.8 388.202738,151.547948 388.608219,151.043836 C389.013701,150.539724 389.216438,149.800005 389.216438,148.824658 C389.216438,147.871228 389.010961,147.136989 388.6,146.621918 C388.189039,146.106847 387.610963,145.849315 386.865753,145.849315 C386.109585,145.849315 385.52329,146.106847 385.106849,146.621918 C384.690409,147.136989 384.482192,147.871228 384.482192,148.824658 C384.482192,149.800005 384.687669,150.539724 385.09863,151.043836 C385.509591,151.547948 386.093147,151.8 386.849315,151.8 Z M395.00274,145.99726 L395.00274,150.156164 C395.00274,150.72603 395.126026,151.128766 395.372603,151.364384 C395.619179,151.600001 395.961642,151.717808 396.4,151.717808 C396.684933,151.717808 396.975341,151.673973 397.271233,151.586301 L397.271233,152.934247 C396.909587,153.054795 396.498632,153.115068 396.038356,153.115068 C395.183557,153.115068 394.52055,152.873975 394.049315,152.391781 C393.57808,151.909587 393.342466,151.208224 393.342466,150.287671 L393.342466,145.99726 L391.731507,145.99726 L391.731507,144.715068 L393.342466,144.715068 L393.342466,142.643836 L395.00274,142.068493 L395.00274,144.715068 L397.287671,144.715068 L397.287671,145.99726 L395.00274,145.99726 Z M402.383562,153.115068 C401.572599,153.115068 400.860277,152.939728 400.246575,152.589041 C399.632874,152.238354 399.158906,151.739729 398.824658,151.093151 C398.490409,150.446572 398.323288,149.690415 398.323288,148.824658 C398.323288,147.9589 398.490409,147.200003 398.824658,146.547945 C399.158906,145.895887 399.632874,145.394522 400.246575,145.043836 C400.860277,144.693149 401.572599,144.517808 402.383562,144.517808 C403.183566,144.517808 403.890408,144.693149 404.50411,145.043836 C405.117811,145.394522 405.591779,145.895887 405.926027,146.547945 C406.260276,147.200003 406.427397,147.9589 406.427397,148.824658 C406.427397,149.690415 406.260276,150.446572 405.926027,151.093151 C405.591779,151.739729 405.117811,152.238354 404.50411,152.589041 C403.890408,152.939728 403.183566,153.115068 402.383562,153.115068 Z M402.367123,151.8 C403.13425,151.8 403.720546,151.547948 404.126027,151.043836 C404.531509,150.539724 404.734247,149.800005 404.734247,148.824658 C404.734247,147.871228 404.528769,147.136989 404.117808,146.621918 C403.706847,146.106847 403.128771,145.849315 402.383562,145.849315 C401.627393,145.849315 401.041098,146.106847 400.624658,146.621918 C400.208217,147.136989 400,147.871228 400,148.824658 C400,149.800005 400.205477,150.539724 400.616438,151.043836 C401.027399,151.547948 401.610955,151.8 402.367123,151.8 Z M410.520548,145.99726 L410.520548,150.156164 C410.520548,150.72603 410.643834,151.128766 410.890411,151.364384 C411.136988,151.600001 411.47945,151.717808 411.917808,151.717808 C412.202741,151.717808 412.493149,151.673973 412.789041,151.586301 L412.789041,152.934247 C412.427395,153.054795 412.016441,153.115068 411.556164,153.115068 C410.701366,153.115068 410.038359,152.873975 409.567123,152.391781 C409.095888,151.909587 408.860274,151.208224 408.860274,150.287671 L408.860274,145.99726 L407.249315,145.99726 L407.249315,144.715068 L408.860274,144.715068 L408.860274,142.643836 L410.520548,142.068493 L410.520548,144.715068 L412.805479,144.715068 L412.805479,145.99726 L410.520548,145.99726 Z M421.863014,144.715068 L418,153.673973 C417.572601,154.64932 417.038359,155.364381 416.39726,155.819178 C415.756161,156.273975 414.964388,156.578081 414.021918,156.731507 L413.660274,155.449315 C414.43836,155.273972 415.027395,155.046577 415.427397,154.767123 C415.827399,154.48767 416.147944,154.068496 416.389041,153.509589 L416.684932,152.819178 L413.2,144.715068 L414.958904,144.715068 L417.556164,151.126027 L420.20274,144.715068 L421.863014,144.715068 Z M427.534247,144.517808 C428.246579,144.517808 428.882189,144.698628 429.441096,145.060274 C430.000003,145.42192 430.435615,145.931504 430.747945,146.589041 C431.060276,147.246579 431.216438,148.002735 431.216438,148.857534 C431.216438,149.712333 431.063015,150.460271 430.756164,151.10137 C430.449314,151.742469 430.016441,152.238354 429.457534,152.589041 C428.898627,152.939728 428.257538,153.115068 427.534247,153.115068 C426.898627,153.115068 426.342468,152.980823 425.865753,152.712329 C425.389039,152.443834 425.030138,152.057537 424.789041,151.553425 L424.789041,156.550685 L423.145205,156.550685 L423.145205,147.049315 C423.145205,146.183557 423.10137,145.405483 423.013699,144.715068 L424.558904,144.715068 L424.723288,146.243836 C424.942467,145.695888 425.298628,145.271234 425.791781,144.969863 C426.284934,144.668492 426.86575,144.517808 427.534247,144.517808 Z M427.156164,151.8 C427.901374,151.8 428.48219,151.542468 428.89863,151.027397 C429.315071,150.512326 429.523288,149.789046 429.523288,148.857534 C429.523288,147.915064 429.315071,147.178085 428.89863,146.646575 C428.48219,146.115066 427.901374,145.849315 427.156164,145.849315 C426.389037,145.849315 425.802742,146.106847 425.39726,146.621918 C424.991779,147.136989 424.789041,147.871228 424.789041,148.824658 C424.789041,149.778087 424.994518,150.512326 425.405479,151.027397 C425.81644,151.542468 426.399996,151.8 427.156164,151.8 Z M440.224658,148.890411 L434.306849,148.890411 C434.361644,150.830147 435.243827,151.8 436.953425,151.8 C437.906854,151.8 438.778078,151.487674 439.567123,150.863014 L440.076712,152.046575 C439.704108,152.375344 439.23014,152.635615 438.654795,152.827397 C438.079449,153.019179 437.501373,153.115068 436.920548,153.115068 C435.594514,153.115068 434.553428,152.73425 433.79726,151.972603 C433.041092,151.210955 432.663014,150.16713 432.663014,148.841096 C432.663014,147.997256 432.830135,147.246579 433.164384,146.589041 C433.498632,145.931504 433.96712,145.42192 434.569863,145.060274 C435.172606,144.698628 435.85753,144.517808 436.624658,144.517808 C437.742471,144.517808 438.621915,144.879448 439.263014,145.60274 C439.904113,146.326031 440.224658,147.328761 440.224658,148.610959 L440.224658,148.890411 Z M436.657534,145.750685 C436.032874,145.750685 435.52329,145.936984 435.128767,146.309589 C434.734245,146.682194 434.482192,147.213695 434.372603,147.90411 L438.761644,147.90411 C438.69589,147.202736 438.482194,146.668495 438.120548,146.30137 C437.758902,145.934245 437.271236,145.750685 436.657534,145.750685 Z" id="Design+Prototype" fill="#12121C" fill-rule="nonzero"></path>
        <path d="M561.158904,132 L561.158904,121.709589 L557.19726,121.709589 L557.19726,120.29589 L566.830137,120.29589 L566.830137,121.709589 L562.868493,121.709589 L562.868493,132 L561.158904,132 Z M575.312329,127.890411 L569.394521,127.890411 C569.449315,129.830147 570.331498,130.8 572.041096,130.8 C572.994525,130.8 573.865749,130.487674 574.654795,129.863014 L575.164384,131.046575 C574.791779,131.375344 574.317811,131.635615 573.742466,131.827397 C573.16712,132.019179 572.589044,132.115068 572.008219,132.115068 C570.682185,132.115068 569.6411,131.73425 568.884932,130.972603 C568.128763,130.210955 567.750685,129.16713 567.750685,127.841096 C567.750685,126.997256 567.917807,126.246579 568.252055,125.589041 C568.586303,124.931504 569.054792,124.42192 569.657534,124.060274 C570.260277,123.698628 570.945202,123.517808 571.712329,123.517808 C572.830143,123.517808 573.709586,123.879448 574.350685,124.60274 C574.991784,125.326031 575.312329,126.328761 575.312329,127.610959 L575.312329,127.890411 Z M571.745205,124.750685 C571.120545,124.750685 570.610961,124.936984 570.216438,125.309589 C569.821916,125.682194 569.569864,126.213695 569.460274,126.90411 L573.849315,126.90411 C573.783561,126.202736 573.569865,125.668495 573.208219,125.30137 C572.846574,124.934245 572.358907,124.750685 571.745205,124.750685 Z M580.112329,132.115068 C578.665746,132.115068 577.526032,131.764387 576.693151,131.063014 L577.186301,129.863014 C578.052059,130.520551 579.04383,130.849315 580.161644,130.849315 C580.73151,130.849315 581.164382,130.753426 581.460274,130.561644 C581.756166,130.369862 581.90411,130.098632 581.90411,129.747945 C581.90411,129.452053 581.802741,129.219179 581.6,129.049315 C581.397259,128.879451 581.054797,128.734247 580.572603,128.613699 L579.191781,128.284932 C578.46849,128.131506 577.91781,127.860276 577.539726,127.471233 C577.161642,127.08219 576.972603,126.597263 576.972603,126.016438 C576.972603,125.271229 577.27123,124.668495 577.868493,124.208219 C578.465756,123.747943 579.257529,123.517808 580.243836,123.517808 C580.835619,123.517808 581.397258,123.610958 581.928767,123.79726 C582.460277,123.983563 582.912327,124.246574 583.284932,124.586301 L582.775342,125.753425 C581.975338,125.117805 581.131511,124.8 580.243836,124.8 C579.706847,124.8 579.290412,124.901369 578.994521,125.10411 C578.698629,125.30685 578.550685,125.589039 578.550685,125.950685 C578.550685,126.235618 578.643835,126.465753 578.830137,126.641096 C579.016439,126.816439 579.312327,126.953424 579.717808,127.052055 L581.131507,127.39726 C581.920552,127.572604 582.504108,127.849313 582.882192,128.227397 C583.260276,128.605481 583.449315,129.095887 583.449315,129.69863 C583.449315,130.443839 583.150688,131.032875 582.553425,131.465753 C581.956161,131.898632 581.142471,132.115068 580.112329,132.115068 Z M587.558904,124.99726 L587.558904,129.156164 C587.558904,129.72603 587.682191,130.128766 587.928767,130.364384 C588.175344,130.600001 588.517806,130.717808 588.956164,130.717808 C589.241097,130.717808 589.531505,130.673973 589.827397,130.586301 L589.827397,131.934247 C589.465752,132.054795 589.054797,132.115068 588.594521,132.115068 C587.739722,132.115068 587.076715,131.873975 586.605479,131.391781 C586.134244,130.909587 585.89863,130.208224 585.89863,129.287671 L585.89863,124.99726 L584.287671,124.99726 L584.287671,123.715068 L585.89863,123.715068 L585.89863,121.643836 L587.558904,121.068493 L587.558904,123.715068 L589.843836,123.715068 L589.843836,124.99726 L587.558904,124.99726 Z" id="Test" fill="#12121C" fill-rule="nonzero"></path>
        <path d="M711.252055,125.967123 C711.93151,126.153426 712.457532,126.493148 712.830137,126.986301 C713.202742,127.479455 713.389041,128.087668 713.389041,128.810959 C713.389041,129.819183 713.041099,130.602737 712.345205,131.161644 C711.649312,131.720551 710.676719,132 709.427397,132 L704.364384,132 L704.364384,120.29589 L709.263014,120.29589 C710.468499,120.29589 711.408216,120.564381 712.082192,121.10137 C712.756168,121.638359 713.093151,122.389036 713.093151,123.353425 C713.093151,123.978085 712.931508,124.517806 712.608219,124.972603 C712.28493,125.4274 711.83288,125.758903 711.252055,125.967123 Z M706.041096,125.375342 L709,125.375342 C710.632885,125.375342 711.449315,124.745212 711.449315,123.484932 C711.449315,122.268487 710.632885,121.660274 709,121.660274 L706.041096,121.660274 L706.041096,125.375342 Z M709.263014,130.635616 C710.117812,130.635616 710.742464,130.479454 711.136986,130.167123 C711.531509,129.854793 711.728767,129.369866 711.728767,128.712329 C711.728767,128.043832 711.528769,127.547947 711.128767,127.224658 C710.728765,126.901368 710.106854,126.739726 709.263014,126.739726 L706.041096,126.739726 L706.041096,130.635616 L709.263014,130.635616 Z M722.676712,123.715068 L722.676712,132 L721.065753,132 L721.065753,130.619178 C720.802738,131.101372 720.441098,131.471232 719.980822,131.728767 C719.520546,131.986303 719.000003,132.115068 718.419178,132.115068 C716.424648,132.115068 715.427397,131.00823 715.427397,128.794521 L715.427397,123.715068 L717.071233,123.715068 L717.071233,128.778082 C717.071233,129.457538 717.210958,129.958902 717.490411,130.282192 C717.769864,130.605481 718.194518,130.767123 718.764384,130.767123 C719.443839,130.767123 719.989039,130.547947 720.4,130.109589 C720.810961,129.671231 721.016438,129.090415 721.016438,128.367123 L721.016438,123.715068 L722.676712,123.715068 Z M725.109589,132 L725.109589,123.715068 L726.753425,123.715068 L726.753425,132 L725.109589,132 Z M724.961644,120.09863 L726.884932,120.09863 L726.884932,121.841096 L724.961644,121.841096 L724.961644,120.09863 Z M729.186301,132 L729.186301,119.90137 L730.830137,119.90137 L730.830137,132 L729.186301,132 Z M740.841096,119.90137 L740.841096,132 L739.19726,132 L739.19726,130.586301 C738.956163,131.079455 738.597263,131.457533 738.120548,131.720548 C737.643833,131.983563 737.087674,132.115068 736.452055,132.115068 C735.739722,132.115068 735.104112,131.934248 734.545205,131.572603 C733.986299,131.210957 733.550686,130.704113 733.238356,130.052055 C732.926026,129.399997 732.769863,128.64658 732.769863,127.791781 C732.769863,126.936982 732.923286,126.186305 733.230137,125.539726 C733.536988,124.893147 733.967121,124.394522 734.520548,124.043836 C735.073975,123.693149 735.717805,123.517808 736.452055,123.517808 C737.076715,123.517808 737.627395,123.649314 738.10411,123.912329 C738.580824,124.175344 738.939725,124.547943 739.180822,125.030137 L739.180822,119.90137 L740.841096,119.90137 Z M736.830137,130.8 C737.586305,130.8 738.169861,130.539729 738.580822,130.019178 C738.991783,129.498628 739.19726,128.767128 739.19726,127.824658 C739.19726,126.882187 738.991783,126.150688 738.580822,125.630137 C738.169861,125.109586 737.591785,124.849315 736.846575,124.849315 C736.090407,124.849315 735.501372,125.106847 735.079452,125.621918 C734.657532,126.136989 734.446575,126.860269 734.446575,127.791781 C734.446575,128.734251 734.657532,129.47123 735.079452,130.00274 C735.501372,130.534249 736.084928,130.8 736.830137,130.8 Z" id="Build" fill="#12121C" fill-rule="nonzero"></path>
    </g>
</svg>