<?xml version="1.0" encoding="UTF-8"?>
<svg width="804px" height="250px" viewBox="0 0 804 250" version="1.1" xmlns="http://www.w3.org/2000/svg" xmlns:xlink="http://www.w3.org/1999/xlink">
    <!-- Generator: Sketch 57.1 (83088) - https://sketch.com -->
    <title>design-process</title>
    <desc>Created with Sketch.</desc>
    <g id="design-process" stroke="none" stroke-width="1" fill="none" fill-rule="evenodd">
        <path d="M661.557355,74.1110022 C676.498789,56.0691216 698.64275,45.3805189 722.547277,45.3153681 L722.547945,45.2123288 L780.082192,45.2123288 L780.082192,40.4178082 L788.30137,45.8972603 L780.082192,51.3767123 L780.082192,46.5821918 L736.973877,46.5815983 C774.07514,53.2788392 802.219178,85.7362851 802.219178,124.767123 C802.219178,168.647281 766.647281,204.219178 722.767123,204.219178 C721.408286,204.219178 720.055081,204.184849 718.708505,204.11679 L665.39726,204.116438 L665.39726,208.910959 L657.178082,203.431507 L665.39726,197.952055 L665.39726,202.746575 L707.482628,202.746986 C689.458041,199.231859 673.246138,189.569592 661.498869,175.355472 C644.001156,205.626169 612.082337,224.998298 576.616629,226.012894 L576.616438,226.034247 L575.685848,226.035286 C575.020064,226.048275 574.353068,226.054795 573.684932,226.054795 C573.006045,226.054795 572.328314,226.048067 571.651815,226.034662 L491.684932,226.034247 L491.684932,230.828767 L483.465753,225.349315 L491.684932,219.869863 L491.684932,224.664384 L556.89424,224.665093 C528.608426,219.938937 503.66843,203.421411 488.183734,179.163928 C469.698523,208.125708 437.732127,226.054795 402.684932,226.054795 C402.01503,226.054795 401.346261,226.048243 400.678698,226.035188 L318.452055,226.034247 L318.452055,230.828767 L310.232877,225.349315 L318.452055,219.869863 L318.452055,224.664384 L385.89488,224.66499 C357.097507,219.852914 331.781166,202.82054 316.382079,177.887585 C298.053131,207.569263 265.665908,226.054795 230.082192,226.054795 C229.412664,226.054795 228.744283,226.048248 228.077121,226.035205 L144.986301,226.034247 L144.986301,230.828767 L136.767123,225.349315 L144.986301,219.869863 L144.986301,224.664384 L213.299516,224.665822 C183.415489,219.673145 157.308143,201.523551 142.142172,175.141482 C127.156046,193.356421 104.84664,204.136986 80.7671233,204.136986 C36.8869651,204.136986 1.31506849,168.56509 1.31506849,124.684932 C1.31506849,80.8047733 36.8869651,45.2328767 80.7671233,45.2328767 L81.0820685,45.234 L81.0821918,45.2123288 L138.616438,45.2123288 L138.616438,40.4178082 L146.835616,45.8972603 L138.616438,51.3767123 L138.616438,46.5821918 L95.4049043,46.5817615 C113.745675,50.0007916 130.250213,59.7737476 142.144485,74.2288631 C159.814422,43.4857829 192.345425,23.9211016 228.397102,23.3289025 L228.39726,23.2945205 L313.328767,23.2945205 L313.328767,18.5 L321.547945,23.9794521 L313.328767,29.4589041 L313.328767,24.6643836 L246.624524,24.6637949 C275.524402,29.4193715 300.941818,46.4778556 316.385044,71.4822785 C334.183282,42.660027 365.23747,24.3949449 399.602276,23.3613853 L399.60274,23.2945205 L484.534247,23.2945205 L484.534247,18.5 L492.753425,23.9794521 L484.534247,29.4589041 L484.534247,24.6643836 L419.234268,24.6647427 C447.619538,29.3370601 472.657406,45.8794809 488.186129,70.2059347 C506.521874,41.4783319 538.121675,23.6057287 572.835396,23.3185814 L572.835616,23.2945205 L657.767123,23.2945205 L657.767123,18.5 L665.986301,23.9794521 L657.767123,29.4589041 L657.767123,24.6643836 L590.220859,24.6631134 C620.161788,29.5892498 646.337986,47.7178561 661.557355,74.1110022 Z M573.684932,24.6849315 C538.745399,24.6849315 506.911275,42.7468008 488.767409,71.8519862 L488.186208,72.7843097 L487.604949,71.8520225 C469.458329,42.7464676 437.62412,24.6849315 402.684932,24.6849315 C367.203705,24.6849315 334.945556,43.3146461 316.971792,73.1509639 L316.385145,74.1247947 L315.798422,73.151009 C297.821254,43.3142293 265.562991,24.6849315 230.082192,24.6849315 C193.519787,24.6849315 160.42477,44.4739922 142.842,75.7740698 L142.345205,76.658442 L141.710539,75.8671656 C126.978481,57.4998177 104.768734,46.6027397 80.7671233,46.6027397 C37.6435195,46.6027397 2.68493151,81.5613278 2.68493151,124.684932 C2.68493151,167.808535 37.6435195,202.767123 80.7671233,202.767123 C104.768878,202.767123 126.978554,191.869907 141.708113,173.503217 L142.342721,172.711908 L142.839577,173.596233 C160.103139,204.322629 192.31198,223.955367 228.074533,224.665023 L229.917808,224.664384 L229.917087,224.684797 C229.972114,224.684887 230.027149,224.684932 230.082192,224.684932 C265.563418,224.684932 297.821567,206.055217 315.795331,176.218899 L316.381979,175.245068 L316.968701,176.218854 C334.607486,205.494017 365.994799,223.979643 400.684868,224.66518 L403.383562,224.664384 L403.383068,224.681 L403.732175,224.67952 C438.259777,224.32259 469.640027,206.33201 487.602454,177.517877 L488.183655,176.585553 L488.764914,177.517841 C506.559888,206.059388 537.517117,223.980792 571.657353,224.664636 L575.687237,224.665129 C611.363734,223.959093 643.507103,204.42139 660.802725,173.812864 L661.299208,172.934224 L661.932392,173.720087 C675.840491,190.981824 696.36321,201.609263 718.755057,202.74752 L722.931507,202.746575 L722.931068,202.848 L724.058355,202.838854 C766.586403,202.149327 800.849315,167.459491 800.849315,124.767123 C800.849315,81.6435195 765.890727,46.6849315 722.767123,46.6849315 C698.856397,46.6849315 676.722034,57.499096 661.989203,75.7468566 L661.355199,76.5321203 L660.859615,75.652918 C643.254169,44.4195734 610.197274,24.6849315 573.684932,24.6849315 Z" id="Combined-Shape" fill="#47476C" fill-rule="nonzero"></path>
        <path d="M660.379357,161.68944 C646.134335,195.368454 612.785793,219 573.917808,219 C535.797007,219 502.985482,196.26829 488.298866,163.620504 C473.617258,196.26829 440.805732,219 402.684932,219 C363.959829,219 330.713665,195.541879 316.381255,162.060455 C302.053458,195.541879 268.807294,219 230.082192,219 C190.871141,219 157.277398,194.949449 143.247919,160.795305 C130.864591,182.472344 107.522014,197.082192 80.7671233,197.082192 C41.0480146,197.082192 8.84931507,164.883492 8.84931507,125.164384 C8.84931507,85.4452748 41.0480146,53.2465753 80.7671233,53.2465753 C107.521866,53.2465753 130.864333,67.8562615 143.251963,89.5330717 C157.277832,55.379007 190.871395,31.3287671 230.082192,31.3287671 C268.807294,31.3287671 302.053458,54.7868879 316.385868,88.2683122 C330.713665,54.7868879 363.959829,31.3287671 402.684932,31.3287671 C440.805732,31.3287671 473.617258,54.0604769 488.303874,86.7082627 C502.985482,54.0604769 535.797007,31.3287671 573.917808,31.3287671 C613.128605,31.3287671 646.722168,55.379007 660.751808,89.5327997 C673.135667,67.8562615 696.478134,53.2465753 723.232877,53.2465753 C762.951985,53.2465753 795.150685,85.4452748 795.150685,125.164384 C795.150685,164.883492 762.951985,197.082192 723.232877,197.082192 C696.478398,197.082192 673.136126,182.472793 660.748403,160.796335 Z" id="fill" fill="#47476C" opacity="0.08"></path>
        <g id="dotted" transform="translate(129.000000, 72.000000)" stroke="#47476C" stroke-dasharray="2,4" stroke-width="1.36986301">
            <path d="M186.987672,1.12294764 C196.117797,16.2761476 201.369863,34.0300398 201.369863,53.0106178 C201.369863,71.9910838 196.117859,89.7448786 186.987833,104.89802 C177.854744,89.7448786 172.60274,71.9910838 172.60274,53.0106178 C172.60274,34.104322 177.813777,16.4151293 186.877915,1.30097736 Z" id="Combined-Shape"></path>
            <path d="M532.360203,3.76364613 C540.540301,18.3228525 545.205479,35.1219297 545.205479,53.0106178 C545.205479,70.8993059 540.540301,87.6983831 532.360203,102.257589 C521.540181,88.7702743 515.068493,71.6462179 515.068493,53.0106178 C515.068493,34.7398278 521.289282,17.9219808 531.728364,4.55957213 Z" id="Combined-Shape"></path>
            <path d="M358.903767,-3.57047725e-13 C368.456716,15.3960187 373.972603,33.559166 373.972603,53.0106178 C373.972603,72.462086 368.456707,90.6252476 358.903742,106.021275 C349.351513,90.6252476 343.835616,72.462086 343.835616,53.0106178 C343.835616,34.104322 349.046654,16.4151293 358.110791,1.30097736 Z" id="Combined-Shape"></path>
            <path d="M12.8467793,3.76330533 C23.6652984,17.2509613 30.1369863,34.3750177 30.1369863,53.0106178 C30.1369863,71.6462179 23.6652984,88.7702743 12.8467793,102.25793 C4.66517875,87.6983831 -9.96536187e-13,70.8993059 -9.96536187e-13,53.0106178 C-9.96536187e-13,35.2164571 4.61600556,18.5004222 12.7158952,3.99463478 Z" id="Combined-Shape"></path>
        </g>
        <text id="Research" font-family="Muli-SemiBold, Muli" font-size="16.4383562" font-weight="500" fill="#12121C">
            <tspan x="44.4657534" y="131.890411">Research</tspan>
        </text>
        <text id="Ideate" font-family="Muli-SemiBold, Muli" font-size="16.4383562" font-weight="500" fill="#12121C">
            <tspan x="206.109589" y="131.890411">Ideate</tspan>
        </text>
        <text id="Design-+-Prototype" font-family="Muli-SemiBold, Muli" font-size="16.4383562" font-weight="500" fill="#12121C">
            <tspan x="376.279452" y="111">Design </tspan>
            <tspan x="398.068493" y="132">+ </tspan>
            <tspan x="365.084932" y="153">Prototype</tspan>
        </text>
        <text id="Test" font-family="Muli-SemiBold, Muli" font-size="16.4383562" font-weight="500" fill="#12121C">
            <tspan x="557" y="132">Test</tspan>
        </text>
        <text id="Build" font-family="Muli-SemiBold, Muli" font-size="16.4383562" font-weight="500" fill="#12121C">
            <tspan x="703" y="132">Build</tspan>
        </text>
    </g>
</svg>