<?xml version="1.0" encoding="UTF-8"?>
<svg width="357px" height="342px" viewBox="0 0 357 342" version="1.1" xmlns="http://www.w3.org/2000/svg" xmlns:xlink="http://www.w3.org/1999/xlink">
    <!-- Generator: Sketch 57.1 (83088) - https://sketch.com -->
    <title>line portrait</title>
    <desc>Created with Sketch.</desc>
    <g id="Page-1" stroke="none" stroke-width="1" fill="none" fill-rule="evenodd" stroke-linecap="round">
        <path d="M85.9094536,46.8042527 C82.4094536,54.3042527 67.5,84 72.4094536,97.8042527 C81.4722152,123.286651 66.168294,133.109263 60.4094536,143.804253 C56.9094536,150.304253 76.6925365,157.828773 73.9094536,151.304253 C72.5,148 67.4094536,147.304253 69.9094536,155.304253 C71.1978153,159.42701 66.0992799,163.97795 66.4094536,166.304253 C67.4094536,173.804253 77.4094536,172.304253 73.9094536,173.804253 C70.4094536,175.304253 68,179 75,183.5 C78.9656345,186.049336 64.6513719,217.72922 102.409454,212.804253 C148.409454,206.804253 144.909454,147.304253 155.409454,146.804253 C165.909454,146.304253 191.409454,127.304253 179.409454,107.304253 C167.409454,87.3042527 138.409454,122.804253 155.409454,124.804253 C162.961753,125.692759 166.294594,101.576491 146.409454,98.3042527 C106.909454,91.8042527 58.6548383,48.4154203 104.909454,15.8042527 C126.415894,0.64143878 199.278004,-11.6407585 236.909454,25.3042527 C269.561511,57.360701 258.627759,97.9399092 274.409454,86.3042527 C333.409454,42.8042527 234.422834,8.92412151 244.409454,22.3042527 C295.909454,91.3042527 282,162 230.409454,189.804253 C217.653576,196.678916 206.5,199 212.5,214.5 C219.217886,231.854538 188.849217,202.363087 196,197 C200,194 208.058215,212.491588 209.409454,226.304253 C213.909454,272.304253 221.303424,259.483058 236.409454,299.304253 C239.235092,306.752953 241.901758,320.586286 244.409454,340.804253 L356.909454,340.804253 L0.5,341 L93.5,341 C112.833333,300.666667 124.666667,277 129,270 C135.5,259.5 138,202.5 124.5,204.5" id="line-portrait" stroke="#1F1F2F"></path>
    </g>
</svg>