<svg xmlns="http://www.w3.org/2000/svg" viewBox="0 0 1440 1024"><defs><style>.cls-1{fill:#1f1f2f;}.cls-2{fill:#fff;opacity:0.2;}</style></defs><title>hero</title><g id="neuron"><path class="cls-1" d="M0,0V1024H1440V0ZM852,433.2s16.15,12.11,3.62,17.13c-5.57,2.23-6.65-16.16-17.75-14.11-27.26,5-3.77,16.8,3,19.48,5.15,2.06,17.34.73,16.23,5.75-2,9.09-13,3.46-19.18,2,.76,5,11.07,12.48,5.65,15.09-12.71,6.11-14.73-18.12-36.94-40.33-33.53,24.06-50.08,13.43-58.7,39.34-7.83,23.54,14.95,33.28,14.95,69.58,0,53.8-47.07,104.9-40.35,111.63,10.63,10.63,20.86,3.47,20.5,8.61-.33,4.84-5.71,4.84-14.06,3.91,3,5,27.6,7.43,27.18,13-.76,10.25-16.14,1.34-21.52,0,0,8.07,8,24.21,0,24.21-12.1,0-8.16-40.16-25.55-43C715.63,698,698.23,722,692.85,722c-10.46,0-4-10.76,1.34-20.17,0,0-20.41,2.1-15.62-8.42,3.52-7.72,26.38,11.11,19.65-18.48-13.45,2.69-35.49,18.59-39,8.07-2.69-8.07,13-7.69,14.79-9.41-8.07-2.69-18.83-5.38-14.79-12.1s36,16.67,38.46.38c-10.22-1.72-14.63-11.64-26.36-13.83-5.7-1.07-24.32,7.24-23.57-3.18.37-5.13,15-3.14,15.5-4.89-4-5.38-15.51-10-10.76-14.79,6.72-6.72,26,12.56,32.28,18.83,18.16,18.16,60.52-56.48,60.52-96.83,0-37.66-29.63-38.25-46.79-54.4-35.32-33.25-29.87-30.33-63.49-23.6-7.36,1.47-26.36,17.54-30.93,12.1-8.07-9.61,12.56-14.8,18.33-18.15-19.81-13.77-57.17-14.78-53.3-23.55,4.71-10.65,25.73,2,30.45,3.72-8.07-8.07-9.38-10.67-5-14.13,6.72-5.38,36.34,53.32,68.74,15.79,11-12.76-21.29-29.93-37.44-24.88-4.68,1.46-23.64,7.07-25.77.67-2.69-8.07,10.92-6.83,15.18-9.2-3.41-3.16-18.69-9.65-12.49-15,7.94-6.87,22.35,16.36,32.28,12.1,18.83-8.07-24.21-44.38-16.14-51.11,5.73-4.78,13.6,10,20.85,22.2,1.24-7.11-.67-26.23,8.74-22.2,5.94,2.55-6.49,48.4,2.69,48.42,16.14,0,3.11-42.13,6.72-44.38,8.07-5,8.82,18.18,9.41,21.52,2.94-1.57,8.81-13.89,13.45-5.38,1.82,3.34-42.81,48.42,9.41,55.14,25.48,3.28,27-37.21,13.39-50.29-8.12-7.83-18.79-27.43-21.46-31.74-10.84-17.56-30-20.59-25.55-26.9,5.5-7.76,14,0,23,7,.79-5.27-3.28-22.89,6.57-21.2,11.27,1.93-.63,23.17,6.7,35.73,9.41,16.14,18.78,32.24,26.9,26.9,17.76-11.7-1.73-66.94,8.07-69.93,8-2.46,8.07,6.72,8.07,21.52,13.1-7.82,18-25.52,24.74-14.92,3.24,5.1-19.74,26.2-23.14,29.27-.27.24-.54.58-.43.93,1.83,6.17,2.63,32.33-6.24,44.53-8.08,11.11,30.29-3,45.42-22.16,7.69-9.73-8.33-33.73-1-36.4,11.11-4,9.09,14.13,11.75,21.6,13.45-8.07,2.63-25.93,9.41-26.9,9.41-1.34,7.62,16.86,5.38,21.52,10-1.7,17-8,18.83,1.34,1.34,6.72-19.13,4.64-29.59,16.14,6.72,5.38,20.56.62,17.53,10.72-2.59,8.65-20.91-3.8-24.25,0C751,408,722.54,394.91,733.85,424.11c12.11,31.3,36.09,20.31,56.54,11.11,21.93-9.87-3.39-36,6-41.37,14.11-8.06,13.16,38.34,18.83,25.55,6.53-14.72,11.36-24.17,14.52-33.65,7.07-21.2,7.79-24.59,14.13-22.21,8.08,3-6.52,21.27-4,24.23,0,0,24.23-7.07,26.25,0,3.33,11.64-17.05,5.22-25.24,10.1-9,5.36-18.17,22.21-11.11,27.26,9.69,6.92,35.33-13.12,40.62-5.72S852,433.2,852,433.2Z"/><path class="cls-2" d="M829.76,425.12c-7.07-5,2.09-21.89,11.11-27.26,8.19-4.87,28.56,1.54,25.24-10.1-2-7.07-26.25,0-26.25,0-2.49-3,12.11-21.2,4-24.23-6.34-2.38-7.07,1-14.13,22.21-3.16,9.48-8,18.93-14.52,33.65-5.67,12.79-4.72-33.62-18.83-25.55-9.41,5.38,15.9,31.5-6,41.37-20.44,9.2-44.42,20.19-56.54-11.11C722.54,394.91,751,408,784.3,369.64c3.34-3.85,21.66,8.61,24.25,0,3-10.1-10.8-5.34-17.53-10.72,10.46-11.5,30.93-9.41,29.59-16.14-1.86-9.33-8.78-3-18.83-1.34,2.24-4.66,4-22.86-5.38-21.52-6.79,1,4,18.83-9.41,26.9-2.67-7.47-.65-25.64-11.75-21.6-7.33,2.67,8.69,26.67,1,36.4-15.13,19.13-53.49,33.26-45.42,22.16,8.88-12.2,8.08-38.36,6.24-44.53-.1-.35.16-.69.43-.93,3.39-3.07,26.38-24.17,23.14-29.27-6.74-10.6-11.64,7.1-24.74,14.92,0-14.79,0-24-8.07-21.52-9.8,3,9.69,58.24-8.07,69.93-8.11,5.34-17.48-10.76-26.9-26.9-7.33-12.57,4.57-33.8-6.7-35.73-9.85-1.69-5.78,15.93-6.57,21.2-9.07-7-17.54-14.75-23-7-4.47,6.31,14.71,9.34,25.55,26.9,2.66,4.32,13.34,23.91,21.46,31.74,13.57,13.09,12.09,53.57-13.39,50.29-52.22-6.72-7.59-51.8-9.41-55.14-4.64-8.51-10.51,3.81-13.45,5.38-.6-3.34-1.35-26.54-9.41-21.52-3.61,2.25,9.41,44.4-6.72,44.38-9.18,0,3.25-45.87-2.69-48.42-9.41-4-7.5,15.09-8.74,22.2-7.24-12.17-15.12-27-20.85-22.2-8.07,6.72,35,43,16.14,51.11-9.92,4.25-24.33-19-32.28-12.1-6.2,5.36,9.08,11.85,12.49,15-4.26,2.37-17.87,1.13-15.18,9.2,2.13,6.39,21.09.79,25.77-.67,16.15-5,48.46,12.11,37.44,24.88-32.39,37.53-62-21.17-68.74-15.79-4.33,3.46-3,6.06,5,14.13-4.72-1.75-25.75-14.37-30.45-3.72-3.87,8.77,33.48,9.78,53.3,23.55-5.76,3.34-26.4,8.54-18.33,18.15,4.57,5.44,23.58-10.63,30.93-12.1,33.62-6.72,28.17-9.64,63.49,23.6,17.16,16.15,46.79,16.74,46.79,54.4,0,40.35-42.36,115-60.52,96.83-6.27-6.27-25.55-25.55-32.28-18.83-4.75,4.75,6.72,9.41,10.76,14.79-.53,1.74-15.13-.24-15.5,4.89C647,655.27,665.63,647,671.33,648c11.73,2.19,16.14,12.1,26.36,13.83-2.45,16.29-34.43-7.1-38.46-.38s6.72,9.41,14.79,12.1c-1.82,1.72-17.48,1.34-14.79,9.41,3.51,10.52,25.55-5.38,39-8.07,6.72,29.59-16.14,10.76-19.65,18.48-4.79,10.52,15.62,8.42,15.62,8.42-5.38,9.41-11.8,20.17-1.34,20.17,5.38,0,22.78-24,16.14-56.48,17.4,2.87,13.45,43,25.55,43,8,0,0-16.14,0-24.21,5.38,1.34,20.76,10.25,21.52,0,.42-5.61-24.21-8.07-27.18-13,8.35.93,13.73.93,14.06-3.91.35-5.14-9.87,2-20.5-8.61-6.72-6.72,40.35-57.83,40.35-111.62,0-36.29-22.78-46-14.95-69.58,8.62-25.91,25.16-15.28,58.7-39.34,22.21,22.21,24.23,46.44,36.94,40.33,5.42-2.61-4.89-10.06-5.65-15.09,6.14,1.44,17.16,7.07,19.18-2,1.12-5-11.08-3.69-16.23-5.75-6.72-2.69-30.21-14.44-3-19.48,11.1-2.06,12.18,16.34,17.75,14.11,12.54-5-3.62-17.13-3.62-17.13s23.75-6.32,18.41-13.8S839.44,432,829.76,425.12Z"/></g></svg>