<svg id="Layer_1" data-name="Layer 1" xmlns="http://www.w3.org/2000/svg" viewBox="0 0 560 560"><defs><style>.cls-1{fill:none;stroke:#000;stroke-linecap:round;stroke-linejoin:round;stroke-width:5px;}</style></defs><path class="cls-1" d="M441.85,123.34c27,74.26-22.28,101.16,13.77,147.89,12.22,15.83,16.75,25.52-8.07,35.3-11.91,4.69,14.78,39.59-17.66,38.39,12.27.45,17.42,13.37,7.34,20.4-28.09,19.57-1.72,56.85-48.28,56.85-49.11,0-101.83-51.67-121.58-90.54-9.3-18.31-45.11-28-45.11-67.52,0-24.12,12.91-34.32,26.53-34.32,26.1,0,45.39,48.47,30,48.47-11.82,0-6.14-16.71,0-24.85,17-22.49,132.07-32.85,163.09-130.07,36.42-114.11-270.49-180.48-331.37,0-99.12,293.78,294.64,411.91,305,359.38,9.22-46.92-279.2,48.91-267.24,0,13.16-53.83,226.48,87.49,233,46.19,7.06-44.73-224.67,61.22-209.81,0"/></svg>